<svg width="811" height="164" viewBox="0 0 811 164" fill="none" xmlns="http://www.w3.org/2000/svg">
<style>
  path {
    stroke-width: 1px !important;
    stroke: var(--Yellow-yellow-700, #B4B2AC) !important;
    fill: none !important;
  }
</style>

<path d="M675.994 81.5122L675.64 81.1587L675.287 81.5122L675.64 81.8658L675.994 81.5122ZM729.494 135.012L729.14 135.366L729.494 135.719L729.847 135.366L729.494 135.012ZM782.994 81.5122L783.348 81.8658L783.701 81.5122L783.348 81.1587L782.994 81.5122ZM729.494 28.0122L729.847 27.6587L729.494 27.3051L729.14 27.6587L729.494 28.0122ZM803.494 44.5122L803.941 44.2886L803.494 44.5122ZM796.494 25.5122L796.141 25.1587L795.802 25.4973L796.126 25.8501L796.494 25.5122ZM800.994 10.0102L801.488 9.93226L801.418 9.48948L800.97 9.5108L800.994 10.0102ZM786.994 16.0122L786.735 16.4398L787.153 16.6934L787.416 16.2806L786.994 16.0122ZM766.994 8.51161L767.278 8.09998V8.09998L766.994 8.51161ZM678.501 133.512L678.989 133.404L678.888 132.952L678.43 133.017L678.501 133.512ZM655.003 121.01L655.45 120.787V120.787L655.003 121.01ZM662.003 140.01L662.356 140.364L662.695 140.025L662.371 139.672L662.003 140.01ZM657.503 155.512L657.009 155.59L657.079 156.033L657.526 156.012L657.503 155.512ZM671.503 149.51L671.762 149.083L671.343 148.829L671.081 149.242L671.503 149.51ZM691.503 157.011L691.787 156.599L691.503 157.011ZM767.001 155.501L766.777 155.053V155.053L767.001 155.501ZM786.001 148.501L786.354 148.147L786.016 147.809L785.663 148.132L786.001 148.501ZM801.503 153.001L801.581 153.495L802.023 153.425L802.002 152.977L801.503 153.001ZM795.501 139.001L795.073 138.742L794.82 139.16L795.232 139.423L795.501 139.001ZM803.001 119.001L803.413 119.285V119.285L803.001 119.001ZM691.502 8.00268L691.726 8.4499V8.4499L691.502 8.00268ZM672.502 15.0027L672.148 15.3563L672.487 15.6947L672.84 15.3712L672.502 15.0027ZM657 10.5027L656.922 10.0088L656.479 10.0787L656.501 10.5265L657 10.5027ZM663.002 24.5027L663.43 24.7619L663.683 24.3434L663.27 24.0808L663.002 24.5027ZM655.501 44.5027L655.09 44.2189L655.501 44.5027ZM686.909 125.169L687.262 125.522L686.909 125.169ZM649 163H648.5V163.5H649V163ZM810.5 163V163.5H811V163H810.5ZM810.5 1H811V0.5H810.5V1ZM649 1V0.5H648.5V1H649ZM466.503 1V0.5H466.025L466.003 0.97792L466.503 1ZM561.003 1L561.502 1.03124L561.535 0.5H561.003V1ZM594.503 36L595.003 35.9973L595 35.5403L594.545 35.5018L594.503 36ZM594.503 129.5L594.526 129.999V129.999L594.503 129.5ZM562.003 163V163.5H562.503V163H562.003ZM466.503 163L466.004 163.029L466.031 163.5H466.503V163ZM433.503 130.5H433.003V131.042L433.543 130.998L433.503 130.5ZM433.503 35V34.5H433.003V35H433.503ZM479.63 15V14.5H479.178L479.132 14.9491L479.63 15ZM547.566 15L548.064 14.9534L548.021 14.5H547.566V15ZM580.5 48.5L581 48.4974L580.997 48H580.5V48.5ZM547.566 149V149.5H548.023L548.064 149.044L547.566 149ZM479.63 149L479.13 149.024L479.153 149.5H479.63V149ZM446 116H445.5V116.441L445.938 116.496L446 116ZM446 48.5L446.033 48.0011L445.5 47.9656V48.5H446ZM524.006 72L524.351 71.6382L524.006 72ZM524.5 71.5009L524.015 71.378L523.787 72.2783L524.664 71.9732L524.5 71.5009ZM524.505 92.5004L524.772 92.0777L524.084 92.7707L524.505 92.5004ZM502.5 93.0009L502.969 93.1753L503.339 92.1796L502.336 92.5287L502.5 93.0009ZM479.505 82.0008L479.005 82.0008L479.505 82.0008ZM503 71.5L502.788 71.9528L503.899 72.4728L503.468 71.3244L503 71.5ZM514.005 49.0009L513.98 49.5003L514.005 49.0009ZM250.5 1V0.5H250.022L250 0.97792L250.5 1ZM345 1L345.499 1.03124L345.532 0.5H345V1ZM378.5 36L379 35.9973L378.998 35.5403L378.542 35.5018L378.5 36ZM378.5 129.5L378.523 129.999V129.999L378.5 129.5ZM346 163V163.5H346.5V163H346ZM250.5 163L250.001 163.029L250.028 163.5H250.5V163ZM217.5 130.5H217V131.042L217.54 130.998L217.5 130.5ZM217.5 35V34.5H217V35H217.5ZM263.627 15V14.5H263.175L263.129 14.9491L263.627 15ZM331.563 15L332.061 14.9534L332.018 14.5H331.563V15ZM364.497 48.5L364.997 48.4974L364.995 48H364.497V48.5ZM331.563 149V149.5H332.021L332.061 149.044L331.563 149ZM263.627 149L263.127 149.024L263.15 149.5H263.627V149ZM229.997 116H229.497V116.441L229.935 116.496L229.997 116ZM229.997 48.5L230.03 48.0011L229.497 47.9656V48.5H229.997ZM335.501 82.9874L335.127 82.6552L334.844 82.9738L335.114 83.3038L335.501 82.9874ZM338 58.9975L337.554 59.223V59.223L338 58.9975ZM315.5 49.4874L315.031 49.6611L315.193 50.0975L315.64 49.9674L315.5 49.4874ZM315.5 116.988L315.475 116.489L315.076 116.509L315.007 116.903L315.5 116.988ZM338 105.497L338.419 105.771L338.427 105.757L338.435 105.744L338 105.497ZM277.5 116.988L277.962 116.797L277.836 116.494L277.508 116.488L277.5 116.988ZM258 82.9874L258.386 83.305L258.617 83.0234L258.42 82.7168L258 82.9874ZM256 105.497L255.529 105.666V105.666L256 105.497ZM277.5 49.4874L277.493 49.9873L277.817 49.9918L277.953 49.6982L277.5 49.4874ZM258 56.9975L258.4 57.2975L258.415 57.2767L258.429 57.2546L258 56.9975ZM297.001 36L297.001 36.5H297.001V36ZM301.5 75L301.006 74.92C300.969 75.1491 301.095 75.3736 301.309 75.4622C301.524 75.5507 301.771 75.48 301.906 75.2915L301.5 75ZM305 83.0776L304.867 82.5955C304.648 82.6559 304.497 82.8569 304.5 83.0845C304.503 83.3121 304.66 83.5089 304.881 83.5632L305 83.0776ZM301.001 88.9995L301.339 88.631C301.177 88.483 300.939 88.4573 300.749 88.5674C300.56 88.6775 300.465 88.8979 300.514 89.1112L301.001 88.9995ZM292.5 89.6356L292.996 89.696C293.02 89.4987 292.925 89.306 292.754 89.205C292.583 89.104 292.368 89.1139 292.207 89.2303L292.5 89.6356ZM261.501 102.5L261.033 102.676V102.676L261.501 102.5ZM288.5 81.4995L288.67 81.97C288.878 81.8952 289.012 81.6929 289 81.4724C288.988 81.2518 288.832 81.0653 288.618 81.0135L288.5 81.4995ZM291.5 75L291.164 75.37C291.326 75.5177 291.566 75.5421 291.755 75.4302C291.944 75.3182 292.038 75.0961 291.986 74.8827L291.5 75ZM0.5 20.5V20H0V20.5H0.5ZM0.5 142H0V142.5H0.5V142ZM20.5 142H21V141.5H20.5V142ZM20.5 162H20V162.5H20.5V162ZM141 162V162.5H141.5V162H141ZM141 142V141.5H140.5V142H141ZM162 142V142.5H162.5V142H162ZM162 20.5H162.5V20H162V20.5ZM141 20.5H140.5V21H141V20.5ZM141 0.5H141.5V0H141V0.5ZM20.5 0.5V0H20V0.5H20.5ZM20.5 20.5V21H21V20.5H20.5ZM13 34.4799V33.9799H12.5V34.4799H13ZM13 128.52H12.5V129.02H13V128.52ZM33.4799 128.52H33.9799V128.02H33.4799V128.52ZM33.4799 149H32.9799V149.5H33.4799V149ZM127.746 149V149.5H128.246V149H127.746ZM127.746 128.52V128.02H127.246V128.52H127.746ZM148 128.52V129.02H148.5V128.52H148ZM148 34.4799H148.5V33.9799H148V34.4799ZM127.746 34.4799H127.246V34.9799H127.746V34.4799ZM127.746 14H128.246V13.5H127.746V14ZM33.4799 14V13.5H32.9799V14H33.4799ZM33.4799 34.4799V34.9799H33.9799V34.4799H33.4799ZM26.5 82.5L26.1251 82.1692L25.8242 82.5102L26.1352 82.842L26.5 82.5ZM40.5 82.5L40.8881 82.8153L41.1366 82.5094L40.8972 82.1963L40.5 82.5ZM121 82.5L120.625 82.1692L120.324 82.5102L120.635 82.842L121 82.5ZM135 82.5L135.388 82.8153L135.637 82.5094L135.397 82.1963L135 82.5ZM81 136L80.6692 136.375L81.0102 136.676L81.342 136.365L81 136ZM81 122L81.3153 121.612L81.0094 121.363L80.6963 121.603L81 122ZM81 41L80.6692 41.3749L81.0102 41.6758L81.342 41.3648L81 41ZM81 27L81.3153 26.6119L81.0094 26.3634L80.6963 26.6028L81 27ZM80.9918 81.0018L81.0174 80.5024L80.9832 80.5007L80.9491 80.5036L80.9918 81.0018ZM88.4918 64.0018L88.0098 64.1345L88.1748 64.7335L88.7246 64.4443L88.4918 64.0018ZM80.9918 53.502L80.9925 53.002V53.002L80.9918 53.502ZM74.9918 65.002L74.7418 65.435L75.3618 65.793L75.4844 65.0876L74.9918 65.002ZM84.495 72.9293C84.4559 72.6559 84.2027 72.466 83.9293 72.505C83.6559 72.5441 83.466 72.7973 83.505 73.0707L84 73L84.495 72.9293ZM78.4961 73.062C78.5304 72.788 78.336 72.5381 78.062 72.5039C77.788 72.4696 77.5381 72.664 77.5039 72.938L78 73L78.4961 73.062ZM62.3027 101.062L62.6151 100.672V100.672L62.3027 101.062ZM74.3109 98.0607L74.793 97.9279L74.628 97.329L74.0781 97.6182L74.3109 98.0607ZM81.8109 108.561L81.8103 109.061V109.061L81.8109 108.561ZM87.8109 97.0605L88.0609 96.6275L87.4409 96.2695L87.3183 96.9749L87.8109 97.0605ZM81.8109 81.0607L81.7922 81.5604L81.8229 81.5615L81.8536 81.5589L81.8109 81.0607ZM83.5014 87.9547C83.4763 88.2297 83.679 88.4729 83.954 88.4979C84.229 88.523 84.4722 88.3203 84.4973 88.0453L83.9993 88L83.5014 87.9547ZM77.5012 88.0383C77.5224 88.3137 77.7627 88.5197 78.0381 88.4985C78.3134 88.4773 78.5194 88.237 78.4983 87.9617L77.9997 88L77.5012 88.0383ZM0.5 152.5V152H0V152.5H0.5ZM0.5 162.5H0V163H0.5V162.5ZM10 162.5V163H10.5V162.5H10ZM10 152.5H10.5V152H10V152.5ZM152.5 152.5V152H152V152.5H152.5ZM152.5 162.5H152V163H152.5V162.5ZM162 162.5V163H162.5V162.5H162ZM162 152.5H162.5V152H162V152.5ZM152.5 1V0.5H152V1H152.5ZM152.5 11H152V11.5H152.5V11ZM162 11V11.5H162.5V11H162ZM162 1H162.5V0.5H162V1ZM0.5 1V0.5H0V1H0.5ZM0.5 11H0V11.5H0.5V11ZM10 11V11.5H10.5V11H10ZM10 1H10.5V0.5H10V1ZM675.994 81.5122L675.64 81.8658L729.14 135.366L729.494 135.012L729.847 134.659L676.347 81.1587L675.994 81.5122ZM729.494 135.012L729.847 135.366L783.348 81.8658L782.994 81.5122L782.64 81.1587L729.14 134.659L729.494 135.012ZM782.994 81.5122L783.348 81.1587L729.847 27.6587L729.494 28.0122L729.14 28.3658L782.64 81.8658L782.994 81.5122ZM729.494 28.0122L729.14 27.6587L675.64 81.1587L675.994 81.5122L676.347 81.8658L729.847 28.3658L729.494 28.0122ZM779.996 32.0102L780.067 32.5052C781.729 32.2676 786.021 32.3816 790.637 34.0439C795.24 35.7013 800.12 38.8807 803.047 44.7358L803.494 44.5122L803.941 44.2886C800.869 38.1431 795.748 34.8215 790.976 33.1031C786.218 31.3896 781.761 31.2529 779.925 31.5153L779.996 32.0102ZM803.494 44.5122L803.047 44.7358C803.168 44.9783 803.292 45.1905 803.422 45.3304C803.479 45.3919 803.6 45.5095 803.781 45.5503C803.886 45.574 804.008 45.5706 804.128 45.5191C804.243 45.4697 804.32 45.3915 804.369 45.3246C804.456 45.2037 804.487 45.0688 804.501 44.9872C804.517 44.8925 804.523 44.7895 804.524 44.6865C804.526 44.4794 804.506 44.2215 804.471 43.928C804.328 42.7553 803.902 40.7951 803.248 38.5457C802.594 36.2917 801.705 33.7255 800.631 31.3403C799.56 28.9622 798.29 26.7317 796.863 25.1743L796.494 25.5122L796.126 25.8501C797.448 27.2924 798.665 29.4112 799.719 31.7509C800.77 34.0837 801.643 36.6042 802.288 38.8246C802.934 41.0498 803.345 42.9519 803.478 44.0484C803.511 44.3223 803.525 44.5322 803.524 44.6779C803.523 44.7513 803.519 44.7961 803.515 44.8184C803.509 44.8539 803.51 44.8055 803.559 44.7385C803.588 44.6985 803.643 44.6391 803.734 44.6001C803.829 44.5591 803.925 44.5577 804.001 44.5748C804.124 44.6025 804.176 44.6725 804.155 44.6499C804.129 44.6219 804.057 44.5205 803.941 44.2886L803.494 44.5122ZM796.494 25.5122L796.848 25.8657C799.957 22.7553 801.108 18.7549 801.491 15.5701C801.682 13.9739 801.682 12.5702 801.634 11.5646C801.61 11.0614 801.574 10.6569 801.544 10.3765C801.529 10.2363 801.515 10.1271 801.505 10.052C801.5 10.0144 801.496 9.98542 801.493 9.96533C801.492 9.95529 801.49 9.94748 801.49 9.94195C801.489 9.93919 801.489 9.93699 801.489 9.93537C801.488 9.93457 801.488 9.9339 801.488 9.93338C801.488 9.93312 801.488 9.93284 801.488 9.93271C801.488 9.93246 801.488 9.93226 800.994 10.0102C800.5 10.0882 800.5 10.0881 800.5 10.088C800.5 10.088 800.5 10.0879 800.5 10.088C800.5 10.088 800.5 10.0882 800.5 10.0886C800.5 10.0893 800.501 10.0905 800.501 10.0923C800.501 10.096 800.502 10.1019 800.504 10.11C800.506 10.1262 800.509 10.1513 800.514 10.1848C800.523 10.2518 800.536 10.3525 800.55 10.4838C800.578 10.7464 800.612 11.1309 800.635 11.6122C800.681 12.5754 800.681 13.9218 800.498 15.4509C800.13 18.5166 799.031 22.2672 796.141 25.1587L796.494 25.5122ZM800.994 10.0102C800.97 9.5108 800.97 9.51081 800.97 9.51082C800.97 9.51083 800.97 9.51084 800.969 9.51085C800.969 9.51087 800.968 9.51091 800.967 9.51095C800.966 9.51103 800.964 9.51114 800.961 9.51129C800.955 9.51158 800.947 9.51202 800.936 9.51262C800.915 9.51381 800.884 9.51563 800.843 9.51823C800.763 9.52342 800.645 9.5317 800.495 9.54418C800.194 9.56914 799.763 9.6109 799.235 9.67837C798.181 9.81318 796.736 10.0512 795.178 10.4647C792.094 11.2832 788.43 12.8238 786.572 15.7439L786.994 16.0122L787.416 16.2806C789.058 13.6986 792.394 12.2382 795.435 11.4313C796.939 11.032 798.339 10.8012 799.362 10.6703C799.874 10.6049 800.29 10.5646 800.578 10.5408C800.721 10.5288 800.833 10.521 800.907 10.5162C800.945 10.5138 800.973 10.5121 800.992 10.5111C801.001 10.5105 801.008 10.5102 801.012 10.51C801.014 10.5098 801.016 10.5098 801.017 10.5097C801.017 10.5097 801.018 10.5097 801.018 10.5097C801.018 10.5097 801.018 10.5097 801.018 10.5097C801.018 10.5097 801.018 10.5097 800.994 10.0102ZM786.994 16.0122L787.253 15.5846C784.461 13.8923 778.235 11.1838 773.326 9.31466C770.872 8.38048 768.712 7.64201 767.454 7.34463C767.14 7.27035 766.861 7.21849 766.64 7.20173C766.531 7.19348 766.412 7.19174 766.301 7.2095C766.209 7.22405 766.011 7.26777 765.87 7.44525C765.694 7.66742 765.74 7.91547 765.797 8.05292C765.85 8.18028 765.938 8.28556 766.012 8.36362C766.168 8.52703 766.406 8.71372 766.71 8.92323L766.994 8.51161L767.278 8.09998C766.987 7.89956 766.818 7.7601 766.736 7.67391C766.692 7.62718 766.703 7.62679 766.719 7.66673C766.74 7.71675 766.789 7.89561 766.654 8.06591C766.601 8.133 766.542 8.16569 766.51 8.17996C766.493 8.18744 766.48 8.19163 766.472 8.19387C766.464 8.19613 766.458 8.19697 766.458 8.19712C766.456 8.19732 766.464 8.19604 766.484 8.19578C766.504 8.19553 766.53 8.19628 766.564 8.19888C766.708 8.20975 766.927 8.24757 767.224 8.3178C768.411 8.59843 770.516 9.31501 772.97 10.2492C777.875 12.1169 784.027 14.7985 786.735 16.4398L786.994 16.0122ZM766.994 8.51161L766.71 8.92323C773.885 13.8706 776.807 18.5355 778.081 22.4767C778.72 24.4554 778.951 26.2714 779.082 27.8868C779.212 29.4721 779.247 30.949 779.508 32.1189L779.996 32.0102L780.484 31.9016C780.244 30.8215 780.216 29.4859 780.079 27.8056C779.945 26.1554 779.706 24.2528 779.032 22.1692C777.68 17.9857 774.603 13.1512 767.278 8.09998L766.994 8.51161ZM678.501 133.512L678.43 133.017C676.768 133.255 672.476 133.141 667.859 131.479C663.257 129.821 658.377 126.642 655.45 120.787L655.003 121.01L654.555 121.234C657.628 127.379 662.749 130.701 667.521 132.419C672.279 134.133 676.736 134.27 678.571 134.007L678.501 133.512ZM655.003 121.01L655.45 120.787C655.329 120.544 655.205 120.332 655.075 120.192C655.018 120.131 654.897 120.013 654.716 119.972C654.611 119.948 654.489 119.952 654.369 120.003C654.254 120.053 654.176 120.131 654.128 120.198C654.041 120.319 654.01 120.454 653.996 120.535C653.98 120.63 653.974 120.733 653.973 120.836C653.971 121.043 653.991 121.301 654.026 121.594C654.168 122.767 654.595 124.727 655.248 126.977C655.903 129.231 656.792 131.797 657.866 134.182C658.937 136.56 660.206 138.791 661.634 140.348L662.003 140.01L662.371 139.672C661.049 138.23 659.831 136.111 658.778 133.771C657.727 131.439 656.854 128.918 656.209 126.698C655.562 124.473 655.152 122.571 655.019 121.474C654.986 121.2 654.971 120.99 654.973 120.844C654.973 120.771 654.978 120.726 654.982 120.704C654.988 120.669 654.987 120.717 654.938 120.784C654.909 120.824 654.854 120.883 654.763 120.922C654.667 120.963 654.572 120.965 654.496 120.948C654.373 120.92 654.321 120.85 654.342 120.873C654.368 120.901 654.44 121.002 654.555 121.234L655.003 121.01ZM662.003 140.01L661.649 139.657C658.54 142.767 657.388 146.768 657.006 149.952C656.815 151.549 656.815 152.952 656.863 153.958C656.887 154.461 656.923 154.866 656.953 155.146C656.968 155.286 656.982 155.395 656.992 155.47C656.997 155.508 657.001 155.537 657.004 155.557C657.005 155.567 657.006 155.575 657.007 155.58C657.008 155.583 657.008 155.585 657.008 155.587C657.008 155.588 657.009 155.589 657.009 155.589C657.009 155.589 657.009 155.59 657.009 155.59C657.009 155.59 657.009 155.59 657.503 155.512C657.997 155.434 657.997 155.434 657.997 155.434C657.997 155.434 657.997 155.435 657.997 155.434C657.997 155.434 657.997 155.434 657.997 155.434C657.996 155.433 657.996 155.432 657.996 155.43C657.995 155.426 657.995 155.421 657.993 155.412C657.991 155.396 657.987 155.371 657.983 155.338C657.974 155.271 657.961 155.17 657.947 155.039C657.919 154.776 657.884 154.391 657.862 153.91C657.816 152.947 657.816 151.601 657.999 150.072C658.367 147.006 659.466 143.255 662.356 140.364L662.003 140.01ZM657.503 155.512C657.526 156.012 657.527 156.012 657.527 156.012C657.527 156.012 657.527 156.012 657.527 156.012C657.528 156.012 657.529 156.012 657.529 156.012C657.531 156.011 657.533 156.011 657.536 156.011C657.542 156.011 657.55 156.01 657.561 156.01C657.582 156.009 657.613 156.007 657.654 156.004C657.734 155.999 657.852 155.991 658.002 155.978C658.302 155.953 658.734 155.912 659.261 155.844C660.316 155.709 661.76 155.471 663.318 155.058C666.403 154.239 670.067 152.699 671.925 149.779L671.503 149.51L671.081 149.242C669.438 151.824 666.103 153.284 663.062 154.091C661.557 154.49 660.158 154.721 659.135 154.852C658.623 154.918 658.207 154.958 657.919 154.982C657.776 154.994 657.664 155.001 657.589 155.006C657.552 155.009 657.524 155.01 657.505 155.011C657.496 155.012 657.489 155.012 657.484 155.012C657.482 155.013 657.481 155.013 657.48 155.013C657.479 155.013 657.479 155.013 657.479 155.013C657.479 155.013 657.479 155.013 657.479 155.013C657.479 155.013 657.479 155.013 657.503 155.512ZM671.503 149.51L671.244 149.938C674.036 151.63 680.262 154.339 685.171 156.208C687.624 157.142 689.785 157.88 691.043 158.178C691.357 158.252 691.635 158.304 691.857 158.321C691.966 158.329 692.084 158.331 692.196 158.313C692.288 158.298 692.486 158.255 692.626 158.077C692.802 157.855 692.757 157.607 692.7 157.47C692.646 157.342 692.559 157.237 692.484 157.159C692.329 156.995 692.09 156.809 691.787 156.599L691.503 157.011L691.219 157.422C691.51 157.623 691.678 157.762 691.76 157.849C691.805 157.895 691.794 157.896 691.777 157.856C691.756 157.806 691.708 157.627 691.842 157.457C691.896 157.389 691.954 157.357 691.986 157.342C692.003 157.335 692.017 157.331 692.025 157.329C692.033 157.326 692.038 157.325 692.039 157.325C692.04 157.325 692.032 157.326 692.012 157.327C691.993 157.327 691.966 157.326 691.932 157.324C691.789 157.313 691.57 157.275 691.273 157.205C690.086 156.924 687.98 156.207 685.527 155.273C680.622 153.406 674.47 150.724 671.762 149.083L671.503 149.51ZM691.503 157.011L691.787 156.599C684.612 151.652 681.689 146.987 680.416 143.046C679.776 141.067 679.546 139.251 679.414 137.636C679.285 136.05 679.249 134.573 678.989 133.404L678.501 133.512L678.013 133.621C678.253 134.701 678.281 136.037 678.418 137.717C678.552 139.367 678.791 141.27 679.464 143.353C680.816 147.537 683.894 152.371 691.219 157.422L691.503 157.011ZM779.503 132.003L779.008 132.073C779.245 133.736 779.131 138.028 777.469 142.644C775.812 147.247 772.632 152.126 766.777 155.053L767.001 155.501L767.224 155.948C773.37 152.875 776.691 147.755 778.41 142.983C780.123 138.225 780.26 133.768 779.998 131.932L779.503 132.003ZM767.001 155.501L766.777 155.053C766.535 155.175 766.322 155.299 766.182 155.429C766.121 155.486 766.003 155.606 765.963 155.787C765.939 155.893 765.942 156.015 765.994 156.135C766.043 156.25 766.121 156.327 766.188 156.375C766.309 156.463 766.444 156.493 766.526 156.507C766.62 156.524 766.723 156.53 766.826 156.531C767.034 156.532 767.291 156.513 767.585 156.477C768.758 156.335 770.718 155.908 772.967 155.255C775.221 154.6 777.787 153.712 780.173 152.638C782.551 151.567 784.781 150.297 786.339 148.869L786.001 148.501L785.663 148.132C784.221 149.454 782.102 150.672 779.762 151.726C777.429 152.776 774.909 153.65 772.688 154.295C770.463 154.941 768.561 155.352 767.464 155.485C767.191 155.518 766.981 155.532 766.835 155.531C766.762 155.53 766.717 155.526 766.694 155.522C766.659 155.516 766.707 155.517 766.774 155.565C766.814 155.594 766.874 155.649 766.913 155.74C766.954 155.836 766.955 155.931 766.938 156.007C766.91 156.13 766.84 156.183 766.863 156.162C766.891 156.136 766.992 156.064 767.224 155.948L767.001 155.501ZM786.001 148.501L785.647 148.854C788.758 151.964 792.758 153.115 795.943 153.497C797.539 153.689 798.943 153.689 799.948 153.641C800.451 153.617 800.856 153.581 801.136 153.551C801.277 153.535 801.386 153.522 801.461 153.512C801.498 153.507 801.528 153.503 801.548 153.5C801.558 153.498 801.565 153.497 801.571 153.496C801.574 153.496 801.576 153.495 801.578 153.495C801.578 153.495 801.579 153.495 801.58 153.495C801.58 153.495 801.58 153.495 801.58 153.495C801.58 153.495 801.581 153.495 801.503 153.001C801.425 152.507 801.425 152.507 801.425 152.507C801.425 152.507 801.425 152.507 801.425 152.507C801.425 152.507 801.425 152.507 801.424 152.507C801.424 152.507 801.422 152.507 801.421 152.507C801.417 152.508 801.411 152.509 801.403 152.51C801.387 152.512 801.362 152.516 801.328 152.521C801.261 152.53 801.16 152.542 801.029 152.556C800.767 152.585 800.382 152.619 799.901 152.642C798.938 152.688 797.591 152.688 796.062 152.504C792.996 152.136 789.246 151.038 786.354 148.147L786.001 148.501ZM801.503 153.001C802.002 152.977 802.002 152.977 802.002 152.977C802.002 152.976 802.002 152.976 802.002 152.976C802.002 152.975 802.002 152.975 802.002 152.974C802.002 152.972 802.002 152.97 802.002 152.967C802.001 152.962 802.001 152.953 802 152.943C801.999 152.921 801.997 152.89 801.995 152.85C801.99 152.769 801.981 152.652 801.969 152.501C801.944 152.201 801.902 151.77 801.835 151.242C801.7 150.188 801.462 148.743 801.048 147.185C800.23 144.101 798.689 140.436 795.769 138.579L795.501 139.001L795.232 139.423C797.814 141.065 799.275 144.401 800.082 147.441C800.481 148.946 800.712 150.345 800.843 151.369C800.908 151.88 800.948 152.297 800.972 152.584C800.984 152.728 800.992 152.839 800.997 152.914C800.999 152.951 801.001 152.98 801.002 152.998C801.002 153.008 801.003 153.014 801.003 153.019C801.003 153.021 801.003 153.023 801.003 153.024C801.003 153.024 801.003 153.024 801.003 153.025C801.003 153.025 801.003 153.025 801.003 153.025C801.003 153.025 801.003 153.025 801.503 153.001ZM795.501 139.001L795.928 139.26C797.621 136.468 800.329 130.242 802.198 125.333C803.132 122.879 803.871 120.719 804.168 119.461C804.243 119.147 804.294 118.868 804.311 118.647C804.319 118.538 804.321 118.419 804.303 118.307C804.289 118.216 804.245 118.017 804.068 117.877C803.846 117.701 803.597 117.746 803.46 117.804C803.333 117.857 803.227 117.945 803.149 118.019C802.986 118.175 802.799 118.413 802.59 118.717L803.001 119.001L803.413 119.285C803.613 118.994 803.753 118.825 803.839 118.743C803.886 118.699 803.886 118.71 803.846 118.726C803.796 118.747 803.617 118.796 803.447 118.661C803.38 118.608 803.347 118.549 803.333 118.517C803.326 118.5 803.321 118.487 803.319 118.479C803.317 118.47 803.316 118.465 803.316 118.464C803.316 118.463 803.317 118.471 803.317 118.491C803.317 118.511 803.317 118.537 803.314 118.571C803.303 118.715 803.265 118.934 803.195 119.231C802.914 120.418 802.198 122.523 801.264 124.977C799.396 129.882 796.714 136.034 795.073 138.742L795.501 139.001ZM803.001 119.001L802.59 118.717C797.642 125.892 792.977 128.814 789.036 130.088C787.058 130.727 785.242 130.957 783.626 131.089C782.041 131.218 780.564 131.254 779.394 131.515L779.503 132.003L779.611 132.491C780.691 132.25 782.027 132.223 783.707 132.086C785.358 131.951 787.26 131.713 789.344 131.039C793.527 129.687 798.362 126.61 803.413 119.285L803.001 119.001ZM679 31.5008L679.495 31.43C679.257 29.7678 679.371 25.4756 681.034 20.8594C682.691 16.2569 685.87 11.3773 691.726 8.4499L691.502 8.00268L691.278 7.55546C685.133 10.628 681.811 15.7485 680.093 20.5206C678.379 25.2788 678.243 29.7357 678.505 31.5715L679 31.5008ZM691.502 8.00268L691.726 8.4499C691.968 8.32866 692.18 8.2045 692.32 8.07454C692.382 8.01751 692.499 7.89711 692.54 7.71593C692.564 7.6109 692.56 7.48872 692.509 7.36873C692.459 7.25364 692.381 7.1764 692.314 7.12796C692.193 7.04049 692.059 7.01001 691.977 6.99604C691.882 6.97983 691.779 6.97365 691.676 6.97277C691.469 6.971 691.211 6.99053 690.918 7.02612C689.745 7.16836 687.785 7.5951 685.535 8.24847C683.281 8.90318 680.715 9.79179 678.33 10.8659C675.952 11.9368 673.721 13.2064 672.164 14.6341L672.502 15.0027L672.84 15.3712C674.282 14.0489 676.401 12.8314 678.741 11.7777C681.073 10.7272 683.594 9.85375 685.814 9.20878C688.04 8.56245 689.942 8.15185 691.038 8.01885C691.312 7.98564 691.522 7.97149 691.668 7.97273C691.741 7.97336 691.786 7.97786 691.808 7.98169C691.844 7.98777 691.795 7.9867 691.728 7.93821C691.688 7.90925 691.629 7.8539 691.59 7.7631C691.549 7.6674 691.547 7.57194 691.565 7.49605C691.592 7.37317 691.662 7.32083 691.64 7.34179C691.612 7.36785 691.51 7.43951 691.278 7.55546L691.502 8.00268ZM672.502 15.0027L672.855 14.6491C669.745 11.5396 665.745 10.3884 662.56 10.0062C660.964 9.81472 659.56 9.81474 658.554 9.86263C658.051 9.88659 657.647 9.92258 657.366 9.95284C657.226 9.96797 657.117 9.98167 657.042 9.99174C657.004 9.99677 656.975 10.0009 656.955 10.0038C656.945 10.0053 656.937 10.0065 656.932 10.0073C656.929 10.0077 656.927 10.0081 656.925 10.0083C656.924 10.0084 656.924 10.0085 656.923 10.0086C656.923 10.0087 656.923 10.0087 656.922 10.0087C656.922 10.0088 656.922 10.0088 657 10.5027C657.078 10.9966 657.078 10.9966 657.078 10.9966C657.078 10.9966 657.078 10.9966 657.078 10.9966C657.078 10.9966 657.078 10.9966 657.078 10.9965C657.079 10.9964 657.08 10.9962 657.082 10.9959C657.086 10.9954 657.092 10.9945 657.1 10.9933C657.116 10.9909 657.141 10.9874 657.175 10.9829C657.242 10.9739 657.342 10.9612 657.474 10.9471C657.736 10.9187 658.121 10.8844 658.602 10.8615C659.565 10.8156 660.912 10.8156 662.441 10.9991C665.506 11.367 669.257 12.4657 672.148 15.3563L672.502 15.0027ZM657 10.5027C656.501 10.5265 656.501 10.5266 656.501 10.5268C656.501 10.527 656.501 10.5272 656.501 10.5274C656.501 10.5279 656.501 10.5286 656.501 10.5294C656.501 10.531 656.501 10.5332 656.501 10.5361C656.501 10.5418 656.502 10.5501 656.502 10.5608C656.504 10.5821 656.505 10.6132 656.508 10.6536C656.513 10.7343 656.521 10.8519 656.534 11.0021C656.559 11.3025 656.601 11.7337 656.668 12.2614C656.803 13.3158 657.041 14.7604 657.454 16.3184C658.273 19.4026 659.814 23.067 662.734 24.9246L663.002 24.5027L663.27 24.0808C660.688 22.4383 659.228 19.1027 658.421 16.0619C658.022 14.5575 657.791 13.1583 657.66 12.1346C657.595 11.6232 657.554 11.2068 657.531 10.9193C657.519 10.7756 657.511 10.6642 657.506 10.5893C657.504 10.5519 657.502 10.5237 657.501 10.5051C657.5 10.4958 657.5 10.4889 657.5 10.4845C657.5 10.4823 657.5 10.4808 657.499 10.4798C657.499 10.4794 657.499 10.479 657.499 10.4789C657.499 10.4788 657.499 10.4788 657.499 10.4788C657.499 10.4788 657.499 10.4789 657 10.5027ZM663.002 24.5027L662.574 24.2435C660.882 27.0356 658.173 33.2619 656.304 38.1708C655.37 40.6243 654.632 42.7848 654.334 44.0426C654.26 44.3567 654.208 44.6352 654.191 44.8567C654.183 44.9657 654.181 45.0841 654.199 45.1959C654.214 45.2876 654.258 45.486 654.435 45.6265C654.657 45.8024 654.905 45.7571 655.043 45.6996C655.17 45.6462 655.275 45.5587 655.353 45.4844C655.517 45.3287 655.703 45.0904 655.913 44.7866L655.501 44.5027L655.09 44.2189C654.889 44.5096 654.75 44.6782 654.664 44.7603C654.617 44.8048 654.617 44.7939 654.656 44.7771C654.706 44.7562 654.885 44.7076 655.056 44.8424C655.123 44.8955 655.155 44.9544 655.17 44.9864C655.177 45.0033 655.181 45.0166 655.184 45.0248C655.186 45.033 655.187 45.0381 655.187 45.0391C655.187 45.0403 655.186 45.0323 655.185 45.0123C655.185 44.9929 655.186 44.9665 655.189 44.9322C655.199 44.7886 655.237 44.5697 655.308 44.2726C655.588 43.0857 656.305 40.9802 657.239 38.5266C659.107 33.6215 661.788 27.4698 663.43 24.7619L663.002 24.5027ZM655.501 44.5027L655.913 44.7866C660.86 37.6119 665.525 34.6894 669.466 33.4158C671.445 32.7763 673.261 32.546 674.877 32.4143C676.462 32.2851 677.939 32.2493 679.109 31.9888L679 31.5008L678.891 31.0127C677.811 31.2532 676.476 31.2806 674.795 31.4176C673.145 31.5521 671.243 31.7909 669.159 32.4642C664.975 33.8161 660.141 36.8936 655.09 44.2189L655.501 44.5027ZM678.494 133.512L678.847 133.866C680.31 132.403 681.725 131.006 683.118 129.63C684.512 128.255 685.885 126.9 687.262 125.522L686.909 125.169L686.555 124.815C685.18 126.19 683.81 127.543 682.416 128.919C681.022 130.295 679.606 131.693 678.14 133.159L678.494 133.512ZM686.909 125.169L687.262 125.522C699.491 113.294 710.133 102.643 720.411 92.3534L720.057 92L719.703 91.6466C709.425 101.936 698.784 112.587 686.555 124.815L686.909 125.169ZM720.057 92L720.411 92.3534C739.134 73.6094 756.649 56.0643 780.35 32.3638L779.996 32.0102L779.642 31.6567C755.942 55.3575 738.426 72.9029 719.703 91.6466L720.057 92ZM679 31.5008L678.646 31.8543L779.149 132.356L779.503 132.003L779.856 131.649L679.354 31.1472L679 31.5008ZM649 163V163.5H810.5V163V162.5H649V163ZM810.5 163H811V1H810.5H810V163H810.5ZM810.5 1V0.5H649V1V1.5H810.5V1ZM649 1H648.5V163H649H649.5V1H649ZM790.5 81.5H790C790 114.913 762.913 142 729.5 142V142.5V143C763.466 143 791 115.466 791 81.5H790.5ZM729.5 142.5V142C696.087 142 669 114.913 669 81.5H668.5H668C668 115.466 695.534 143 729.5 143V142.5ZM668.5 81.5H669C669 48.0868 696.087 21 729.5 21V20.5V20C695.534 20 668 47.5345 668 81.5H668.5ZM729.5 20.5V21C762.913 21 790 48.0868 790 81.5H790.5H791C791 47.5345 763.466 20 729.5 20V20.5ZM739.552 72.1728L739.199 72.5263C744.464 77.7913 744.325 86.2673 739.045 91.5466L739.399 91.9002L739.753 92.2537C745.408 86.5983 745.575 77.489 739.906 71.8192L739.552 72.1728ZM739.399 91.9002L739.045 91.5466C733.768 96.8235 725.678 96.9137 720.411 91.6464L720.057 92L719.703 92.3536C725.371 98.0209 734.095 97.9115 739.753 92.2537L739.399 91.9002ZM720.057 92L720.411 91.6464C715.12 86.3564 714.773 77.7808 720.027 72.5263L719.674 72.1728L719.32 71.8192C713.64 77.4993 714.059 86.709 719.703 92.3536L720.057 92ZM719.674 72.1728L720.027 72.5263C725.299 67.2542 733.927 67.2543 739.199 72.5263L739.552 72.1728L739.906 71.8192C734.243 66.1566 724.983 66.1566 719.32 71.8192L719.674 72.1728ZM466.503 1V1.5H561.003V1V0.5H466.503V1ZM561.003 1L560.504 0.968765C559.997 9.06763 561.864 15.3614 564.971 20.2374C568.074 25.1075 572.396 28.5344 576.761 30.938C581.125 33.3412 585.546 34.7297 588.872 35.5178C590.536 35.9121 591.929 36.1568 592.907 36.3031C593.397 36.3763 593.783 36.4248 594.048 36.4552C594.18 36.4704 594.282 36.4811 594.352 36.488C594.387 36.4914 594.413 36.4939 594.432 36.4956C594.441 36.4965 594.448 36.4971 594.453 36.4975C594.455 36.4977 594.457 36.4979 594.458 36.498C594.459 36.4981 594.46 36.4981 594.46 36.4982C594.46 36.4982 594.461 36.4982 594.503 36C594.545 35.5018 594.545 35.5018 594.545 35.5018C594.545 35.5018 594.545 35.5017 594.544 35.5017C594.544 35.5016 594.542 35.5015 594.54 35.5014C594.537 35.501 594.531 35.5005 594.523 35.4998C594.507 35.4983 594.483 35.4961 594.45 35.4929C594.386 35.4865 594.289 35.4763 594.162 35.4618C593.907 35.4326 593.533 35.3855 593.055 35.3141C592.1 35.1713 590.735 34.9317 589.102 34.5447C585.834 33.7703 581.504 32.4088 577.243 30.062C572.982 27.7156 568.804 24.3925 565.814 19.7001C562.828 15.0136 561.007 8.93237 561.502 1.03124L561.003 1ZM594.503 36C594.003 36.0027 594.003 36.003 594.003 36.0037C594.003 36.0044 594.003 36.0055 594.003 36.0069C594.003 36.0098 594.003 36.014 594.003 36.0197C594.003 36.031 594.003 36.0479 594.003 36.0704C594.004 36.1153 594.004 36.1823 594.004 36.2708C594.005 36.4476 594.007 36.7101 594.008 37.0524C594.012 37.737 594.017 38.7411 594.023 40.0191C594.036 42.5751 594.053 46.2265 594.073 50.6084C594.112 59.372 594.158 71.0571 594.189 82.7427C594.22 94.4286 594.236 106.114 594.212 114.88C594.201 119.263 594.179 122.914 594.146 125.469C594.129 126.748 594.109 127.749 594.085 128.429C594.073 128.77 594.061 129.025 594.048 129.192C594.042 129.277 594.036 129.328 594.032 129.352C594.029 129.367 594.03 129.354 594.039 129.327C594.042 129.317 594.057 129.273 594.09 129.223C594.107 129.195 594.228 129.012 594.48 129.001L594.503 129.5L594.526 129.999C594.782 129.988 594.906 129.801 594.928 129.768C594.965 129.712 594.983 129.659 594.99 129.638C595.006 129.588 595.014 129.54 595.019 129.511C595.03 129.444 595.038 129.36 595.045 129.268C595.06 129.08 595.073 128.808 595.084 128.463C595.108 127.772 595.128 126.762 595.145 125.482C595.179 122.922 595.201 119.266 595.212 114.882C595.236 106.114 595.22 94.4263 595.189 82.7401C595.158 71.0536 595.112 59.3679 595.073 50.6039C595.053 46.2219 595.036 42.5703 595.023 40.0142C595.017 38.7361 595.012 37.7319 595.008 37.0472C595.007 36.7049 595.005 36.4424 595.004 36.2655C595.004 36.1771 595.004 36.1101 595.003 36.0651C595.003 36.0426 595.003 36.0257 595.003 36.0144C595.003 36.0087 595.003 36.0045 595.003 36.0016C595.003 36.0002 595.003 35.9991 595.003 35.9984C595.003 35.9977 595.003 35.9973 594.503 36ZM594.503 129.5L594.48 129.001C578.023 129.76 569.749 138.264 565.618 146.59C563.558 150.74 562.531 154.837 562.018 157.894C561.761 159.423 561.632 160.695 561.568 161.586C561.535 162.032 561.519 162.383 561.511 162.623C561.507 162.744 561.505 162.837 561.504 162.9C561.503 162.932 561.503 162.956 561.503 162.973C561.503 162.981 561.503 162.988 561.503 162.992C561.503 162.994 561.503 162.996 561.503 162.998C561.503 162.998 561.503 162.999 561.503 162.999C561.503 163 561.503 163 562.003 163C562.503 163 562.503 163 562.503 163C562.503 163 562.503 163 562.503 163C562.503 162.999 562.503 162.998 562.503 162.996C562.503 162.993 562.503 162.988 562.503 162.981C562.503 162.967 562.503 162.945 562.504 162.916C562.505 162.859 562.507 162.772 562.511 162.657C562.518 162.428 562.534 162.09 562.565 161.658C562.628 160.794 562.753 159.554 563.004 158.059C563.506 155.069 564.51 151.072 566.513 147.035C570.507 138.986 578.483 130.74 594.526 129.999L594.503 129.5ZM562.003 163V162.5H466.503V163V163.5H562.003V163ZM466.503 163L467.002 162.971C466.497 154.146 464.161 147.649 460.915 142.875C457.669 138.102 453.531 135.079 449.464 133.172C445.4 131.267 441.405 130.476 438.43 130.159C436.942 130.001 435.705 129.961 434.839 129.961C434.405 129.961 434.064 129.971 433.83 129.981C433.713 129.986 433.623 129.991 433.561 129.995C433.53 129.997 433.506 129.998 433.49 130C433.481 130 433.475 130.001 433.471 130.001C433.468 130.001 433.467 130.001 433.465 130.001C433.465 130.001 433.464 130.002 433.464 130.002C433.463 130.002 433.463 130.002 433.503 130.5C433.543 130.998 433.543 130.998 433.543 130.998C433.543 130.998 433.543 130.998 433.543 130.998C433.544 130.998 433.545 130.998 433.547 130.998C433.55 130.998 433.554 130.998 433.561 130.997C433.575 130.996 433.595 130.995 433.623 130.993C433.679 130.989 433.763 130.985 433.873 130.98C434.094 130.971 434.421 130.961 434.839 130.961C435.675 130.961 436.876 130.999 438.325 131.153C441.224 131.462 445.104 132.233 449.04 134.078C452.972 135.921 456.959 138.836 460.088 143.437C463.217 148.039 465.507 154.354 466.004 163.029L466.503 163ZM433.503 130.5H434.003V35H433.503H433.003V130.5H433.503ZM433.503 35C433.503 35.5 433.503 35.5 433.504 35.5C433.504 35.5 433.505 35.5 433.505 35.5C433.507 35.5 433.509 35.5 433.511 35.5C433.515 35.5 433.522 35.4999 433.53 35.4999C433.547 35.4997 433.571 35.4994 433.602 35.4989C433.665 35.4978 433.756 35.4956 433.875 35.4914C434.112 35.4828 434.458 35.4659 434.898 35.4321C435.776 35.3646 437.029 35.2299 438.536 34.961C441.547 34.4234 445.584 33.3477 449.672 31.1923C457.878 26.8667 466.242 18.2144 467.002 1.02208L466.503 1L466.003 0.97792C465.26 17.7856 457.125 26.1333 449.206 30.3077C445.233 32.4023 441.301 33.4516 438.36 33.9765C436.89 34.2388 435.671 34.3698 434.821 34.4351C434.396 34.4677 434.064 34.4839 433.839 34.492C433.727 34.4961 433.641 34.4981 433.585 34.499C433.556 34.4995 433.535 34.4998 433.521 34.4999C433.515 34.4999 433.51 34.5 433.507 34.5C433.505 34.5 433.504 34.5 433.503 34.5C433.503 34.5 433.503 34.5 433.503 34.5C433.503 34.5 433.503 34.5 433.503 35ZM479.63 15V15.5H547.566V15V14.5H479.63V15ZM547.566 15L547.068 15.0466C548.652 31.9748 556.993 40.4923 564.973 44.7536C568.951 46.8776 572.825 47.9382 575.704 48.4683C577.145 48.7335 578.338 48.8664 579.174 48.933C579.592 48.9663 579.92 48.983 580.146 48.9915C580.259 48.9957 580.346 48.9978 580.405 48.9989C580.435 48.9994 580.458 48.9997 580.474 48.9999C580.482 48.9999 580.488 49 580.492 49C580.495 49 580.496 49 580.498 49C580.498 49 580.499 49 580.499 49C580.5 49 580.5 49 580.5 48.5C580.5 48 580.5 48 580.5 48C580.5 48 580.5 48 580.5 48C580.499 48 580.498 48 580.497 48C580.494 48 580.489 48 580.483 47.9999C580.47 47.9998 580.45 47.9995 580.423 47.9991C580.37 47.9981 580.289 47.9961 580.183 47.9922C579.971 47.9842 579.656 47.9683 579.253 47.9361C578.447 47.8719 577.288 47.7431 575.885 47.4848C573.079 46.9681 569.308 45.9349 565.444 43.8714C557.741 39.7577 549.615 31.5252 548.064 14.9534L547.566 15ZM580.5 48.5C580 48.5026 580 48.5028 580 48.5033C580 48.5039 580 48.5046 580 48.5057C580 48.5077 580 48.5108 580 48.5149C580 48.523 580 48.5353 580 48.5515C580 48.5839 580.001 48.6323 580.001 48.6962C580.002 48.8239 580.003 49.0134 580.004 49.2606C580.006 49.7549 580.01 50.48 580.014 51.4028C580.023 53.2484 580.035 55.8851 580.049 59.049C580.076 65.377 580.109 73.8142 580.131 82.2513C580.152 90.6886 580.163 99.125 580.147 105.452C580.139 108.616 580.124 111.25 580.1 113.093C580.088 114.015 580.074 114.736 580.058 115.225C580.049 115.471 580.041 115.652 580.032 115.769C580.028 115.83 580.024 115.862 580.022 115.873C580.02 115.883 580.023 115.864 580.032 115.834C580.036 115.823 580.051 115.777 580.085 115.723C580.104 115.696 580.233 115.5 580.5 115.5V116V116.5C580.77 116.5 580.902 116.302 580.923 116.27C580.96 116.213 580.978 116.161 580.984 116.141C580.999 116.095 581.006 116.052 581.01 116.029C581.018 115.976 581.024 115.911 581.029 115.844C581.04 115.705 581.049 115.507 581.057 115.259C581.074 114.759 581.088 114.03 581.1 113.106C581.124 111.258 581.139 108.619 581.147 105.454C581.163 99.125 581.152 90.6864 581.131 82.2487C581.109 73.8108 581.076 65.373 581.049 59.0447C581.035 55.8806 581.023 53.2438 581.014 51.398C581.01 50.4751 581.006 49.75 581.004 49.2556C581.003 49.0084 581.002 48.8188 581.001 48.6911C581.001 48.6272 581 48.5788 581 48.5464C581 48.5301 581 48.5179 581 48.5097C581 48.5056 581 48.5026 581 48.5005C581 48.4995 581 48.4987 581 48.4982C581 48.4977 581 48.4974 580.5 48.5ZM580.5 116V115.5C565.268 115.5 556.889 123.898 552.344 132.261C550.075 136.436 548.758 140.605 548.007 143.727C547.631 145.289 547.397 146.592 547.256 147.506C547.186 147.963 547.139 148.323 547.11 148.57C547.095 148.694 547.085 148.789 547.078 148.854C547.075 148.886 547.072 148.911 547.07 148.928C547.07 148.937 547.069 148.943 547.069 148.948C547.068 148.95 547.068 148.952 547.068 148.953C547.068 148.954 547.068 148.955 547.068 148.955C547.068 148.955 547.068 148.956 547.566 149C548.064 149.044 548.064 149.044 548.064 149.044C548.064 149.044 548.064 149.044 548.064 149.044C548.064 149.043 548.064 149.042 548.064 149.04C548.065 149.037 548.065 149.031 548.066 149.024C548.067 149.009 548.07 148.987 548.073 148.957C548.079 148.897 548.089 148.807 548.103 148.689C548.131 148.452 548.176 148.103 548.245 147.658C548.382 146.767 548.611 145.492 548.979 143.961C549.716 140.895 551.007 136.814 553.222 132.739C557.644 124.602 565.732 116.5 580.5 116.5V116ZM547.566 149V148.5H479.63V149V149.5H547.566V149ZM479.63 149L480.129 148.976C479.416 134.277 470.864 125.894 462.534 121.208C458.372 118.867 454.259 117.442 451.189 116.603C449.653 116.183 448.376 115.909 447.48 115.739C447.033 115.655 446.68 115.596 446.439 115.558C446.318 115.54 446.225 115.526 446.162 115.517C446.13 115.513 446.106 115.51 446.089 115.507C446.081 115.506 446.074 115.505 446.07 115.505C446.068 115.505 446.066 115.504 446.065 115.504C446.064 115.504 446.063 115.504 446.063 115.504C446.063 115.504 446.062 115.504 446 116C445.938 116.496 445.938 116.496 445.938 116.496C445.938 116.496 445.938 116.496 445.938 116.496C445.939 116.496 445.94 116.496 445.942 116.497C445.945 116.497 445.95 116.498 445.958 116.499C445.972 116.501 445.994 116.504 446.023 116.508C446.082 116.516 446.17 116.529 446.285 116.547C446.517 116.583 446.858 116.639 447.294 116.722C448.167 116.887 449.418 117.155 450.925 117.567C453.941 118.392 457.973 119.789 462.043 122.079C470.177 126.655 478.439 134.772 479.13 149.024L479.63 149ZM446 116H446.5V48.5H446H445.5V116H446ZM446 48.5C445.967 48.9989 445.967 48.9989 445.968 48.999C445.968 48.999 445.969 48.999 445.969 48.9991C445.971 48.9991 445.972 48.9993 445.975 48.9994C445.979 48.9997 445.985 49 445.993 49.0005C446.009 49.0014 446.032 49.0027 446.062 49.0041C446.123 49.0069 446.21 49.0105 446.324 49.0136C446.552 49.0198 446.883 49.024 447.305 49.0165C448.148 49.0016 449.353 48.94 450.808 48.7538C453.716 48.3816 457.636 47.5102 461.676 45.5106C469.784 41.4964 478.295 32.9707 480.127 15.0509L479.63 15L479.132 14.9491C477.335 32.5293 469.031 40.7536 461.232 44.6144C457.317 46.5523 453.511 47.3997 450.681 47.7619C449.267 47.9428 448.099 48.0023 447.287 48.0167C446.882 48.0239 446.565 48.0198 446.351 48.014C446.245 48.0111 446.163 48.0078 446.11 48.0052C446.083 48.0039 446.063 48.0029 446.05 48.0021C446.044 48.0018 446.039 48.0015 446.036 48.0013C446.035 48.0012 446.034 48.0012 446.033 48.0011C446.033 48.0011 446.033 48.0011 446.033 48.0011C446.033 48.0011 446.033 48.0011 446 48.5ZM528.5 82.4941H528C528 90.2252 521.733 96.4731 514 96.4731V96.9731V97.4731C522.283 97.4731 529 90.7794 529 82.4941H528.5ZM514 96.9731V96.4731C506.268 96.4731 500 90.2051 500 82.4731H499.5H499C499 90.7574 505.716 97.4731 514 97.4731V96.9731ZM499.5 82.4731H500C500 74.7421 506.267 68.4941 514 68.4941V67.9941V67.4941C505.717 67.4941 499 74.1879 499 82.4731H499.5ZM514 67.9941V68.4941C517.746 68.4941 521.148 69.965 523.661 72.3618L524.006 72L524.351 71.6382C521.66 69.0711 518.014 67.4941 514 67.4941V67.9941ZM524.006 72L523.661 72.3618C526.335 74.9121 528 78.5083 528 82.4941H528.5H529C529 78.2237 527.215 74.3693 524.351 71.6382L524.006 72ZM524.5 71.5009C524.664 71.9732 524.664 71.9732 524.664 71.9732C524.664 71.9732 524.664 71.9731 524.665 71.973C524.665 71.9729 524.666 71.9726 524.667 71.9722C524.669 71.9714 524.673 71.9701 524.678 71.9684C524.688 71.965 524.704 71.9597 524.724 71.9528C524.766 71.9389 524.828 71.9183 524.911 71.8921C525.075 71.8397 525.317 71.7647 525.626 71.6758C526.245 71.498 527.131 71.2649 528.195 71.0453C530.327 70.605 533.151 70.2231 535.962 70.437C538.776 70.6511 541.525 71.4578 543.567 73.3447C545.597 75.22 547 78.2287 547 83.0009H547.5H548C548 78.0231 546.528 74.7194 544.246 72.6102C541.975 70.5128 538.974 69.6633 536.038 69.4399C533.099 69.2162 530.173 69.6156 527.993 70.0659C526.9 70.2916 525.989 70.5312 525.35 70.7147C525.031 70.8065 524.779 70.8843 524.606 70.9396C524.52 70.9672 524.453 70.9891 524.408 71.0043C524.385 71.0119 524.367 71.0179 524.355 71.022C524.349 71.024 524.345 71.0256 524.341 71.0267C524.34 71.0273 524.338 71.0277 524.337 71.0281C524.337 71.0282 524.337 71.0284 524.336 71.0285C524.336 71.0286 524.336 71.0287 524.5 71.5009ZM547.5 83.0009H547C547 88.5164 543.781 92.2204 539.391 93.8444C534.981 95.4762 529.394 94.9972 524.772 92.0777L524.505 92.5004L524.238 92.9231C529.116 96.0041 535.027 96.5253 539.738 94.7823C544.471 93.0314 548 88.9854 548 83.0009H547.5ZM524.505 92.5004L524.084 92.7707C526.259 96.1541 527.482 102.256 526.022 107.299C525.297 109.806 523.917 112.025 521.689 113.532C519.461 115.039 516.332 115.87 512.043 115.503L512 116.001L511.957 116.499C516.418 116.881 519.789 116.025 522.25 114.36C524.71 112.696 526.207 110.259 526.983 107.577C528.526 102.246 527.251 95.8472 524.926 92.23L524.505 92.5004ZM512 116.001L512.043 115.503C507.781 115.137 505.14 113.566 503.529 111.47C501.906 109.357 501.279 106.647 501.187 103.922C501.095 101.2 501.539 98.513 502.01 96.4975C502.245 95.4918 502.486 94.658 502.668 94.0768C502.758 93.7863 502.834 93.5591 502.887 93.4054C502.914 93.3286 502.934 93.2702 502.948 93.2314C502.955 93.212 502.96 93.1975 502.964 93.1881C502.966 93.1834 502.967 93.18 502.968 93.1778C502.968 93.1768 502.968 93.176 502.969 93.1756C502.969 93.1754 502.969 93.1753 502.969 93.1752C502.969 93.1752 502.969 93.1753 502.5 93.0009C502.031 92.8265 502.031 92.8268 502.031 92.8271C502.031 92.8274 502.031 92.8278 502.031 92.8282C502.03 92.8291 502.03 92.8303 502.029 92.8318C502.028 92.8349 502.027 92.8392 502.025 92.8449C502.021 92.8562 502.015 92.8725 502.007 92.8939C501.992 92.9365 501.97 92.999 501.942 93.08C501.886 93.242 501.807 93.4783 501.713 93.7786C501.526 94.379 501.278 95.2366 501.037 96.2699C500.555 98.3326 500.092 101.114 500.188 103.955C500.283 106.793 500.938 109.738 502.736 112.079C504.548 114.436 507.469 116.114 511.957 116.499L512 116.001ZM502.5 93.0009C502.336 92.5287 502.336 92.5286 502.336 92.5286C502.336 92.5287 502.336 92.5287 502.335 92.5288C502.335 92.529 502.334 92.5293 502.333 92.5296C502.331 92.5304 502.327 92.5317 502.322 92.5334C502.312 92.5369 502.296 92.5422 502.275 92.5491C502.234 92.563 502.171 92.5837 502.089 92.61C501.925 92.6626 501.683 92.7378 501.373 92.8272C500.754 93.006 499.868 93.2411 498.804 93.4647C496.672 93.9129 493.847 94.3104 491.035 94.127C488.219 93.9433 485.471 93.1809 483.43 91.362C481.405 89.5566 480.005 86.6443 480.005 82.0008L479.505 82.0008L479.005 82.0008C479.005 86.8574 480.479 90.0701 482.765 92.1085C485.036 94.1334 488.037 94.9335 490.97 95.1248C493.907 95.3164 496.83 94.9014 499.01 94.4433C500.102 94.2138 501.012 93.9724 501.651 93.7879C501.97 93.6957 502.222 93.6176 502.394 93.5623C502.481 93.5346 502.547 93.5127 502.593 93.4975C502.615 93.4898 502.633 93.4839 502.645 93.4798C502.651 93.4778 502.655 93.4762 502.659 93.4751C502.66 93.4745 502.662 93.4741 502.663 93.4738C502.663 93.4736 502.663 93.4734 502.664 93.4734C502.664 93.4732 502.664 93.4732 502.5 93.0009ZM479.505 82.0008L480.005 82.0008C480.005 78.5966 480.954 76.0777 482.46 74.2528C483.97 72.4232 486.073 71.2506 488.446 70.6045C493.211 69.3074 498.963 70.1625 502.788 71.9528L503 71.5L503.212 71.0472C499.203 69.1707 493.208 68.2719 488.184 69.6397C485.662 70.3261 483.36 71.5907 481.689 73.6163C480.013 75.6465 479.005 78.4007 479.005 82.0008L479.505 82.0008ZM503 71.5L503.468 71.3244C501.982 67.3606 500.772 61.6485 501.864 57.0664C502.406 54.7909 503.51 52.8205 505.405 51.4601C507.304 50.0976 510.057 49.3041 513.98 49.5003L514.005 49.0009L514.03 48.5015C509.953 48.2977 506.956 49.1165 504.822 50.6477C502.686 52.1808 501.475 54.3853 500.891 56.8345C499.731 61.702 501.018 67.6394 502.532 71.6756L503 71.5ZM514.005 49.0009L513.98 49.5003C517.852 49.6939 520.37 51.1426 522.006 53.1682C523.657 55.2123 524.449 57.894 524.756 60.607C525.061 63.3152 524.877 66.0091 524.614 68.0333C524.483 69.0437 524.332 69.883 524.215 70.4686C524.156 70.7614 524.106 70.9904 524.07 71.1455C524.053 71.223 524.039 71.282 524.029 71.3212C524.025 71.3408 524.021 71.3554 524.019 71.3649C524.017 71.3697 524.017 71.3732 524.016 71.3754C524.016 71.3764 524.016 71.3772 524.015 71.3776C524.015 71.3779 524.015 71.3779 524.015 71.3781C524.015 71.3781 524.015 71.378 524.5 71.5009C524.985 71.6239 524.985 71.6236 524.985 71.6233C524.985 71.6231 524.985 71.6226 524.985 71.6222C524.985 71.6213 524.986 71.6201 524.986 71.6186C524.987 71.6155 524.988 71.6111 524.989 71.6054C524.992 71.5941 524.996 71.5776 525.001 71.5561C525.012 71.5131 525.027 71.4502 525.045 71.3685C525.083 71.2053 525.135 70.9674 525.196 70.6652C525.317 70.061 525.471 69.1988 525.606 68.1622C525.875 66.0927 526.067 63.3117 525.749 60.4948C525.432 57.6828 524.601 54.7895 522.784 52.5399C520.952 50.2717 518.158 48.7079 514.03 48.5015L514.005 49.0009ZM250.5 1V1.5H345V1V0.5H250.5V1ZM345 1L344.501 0.968765C343.994 9.06763 345.861 15.3614 348.968 20.2374C352.071 25.1075 356.393 28.5344 360.758 30.938C365.122 33.3412 369.543 34.7297 372.869 35.5178C374.533 35.9121 375.926 36.1568 376.905 36.3031C377.394 36.3763 377.78 36.4248 378.045 36.4552C378.177 36.4704 378.279 36.4811 378.349 36.488C378.384 36.4914 378.41 36.4939 378.429 36.4956C378.438 36.4965 378.445 36.4971 378.45 36.4975C378.452 36.4977 378.454 36.4979 378.455 36.498C378.456 36.4981 378.457 36.4981 378.457 36.4982C378.458 36.4982 378.458 36.4982 378.5 36C378.542 35.5018 378.542 35.5018 378.542 35.5018C378.542 35.5018 378.542 35.5017 378.541 35.5017C378.541 35.5016 378.539 35.5015 378.537 35.5014C378.534 35.501 378.528 35.5005 378.52 35.4998C378.504 35.4983 378.48 35.4961 378.448 35.4929C378.383 35.4865 378.286 35.4763 378.159 35.4618C377.905 35.4326 377.53 35.3855 377.052 35.3141C376.097 35.1713 374.732 34.9317 373.099 34.5447C369.831 33.7703 365.501 32.4088 361.24 30.062C356.979 27.7156 352.801 24.3925 349.811 19.7001C346.825 15.0136 345.004 8.93237 345.499 1.03124L345 1ZM378.5 36C378 36.0027 378 36.003 378 36.0037C378 36.0044 378 36.0055 378 36.0069C378 36.0098 378 36.014 378 36.0197C378 36.031 378 36.0479 378 36.0704C378.001 36.1153 378.001 36.1823 378.001 36.2708C378.002 36.4476 378.004 36.7101 378.005 37.0524C378.009 37.737 378.014 38.7411 378.02 40.0191C378.033 42.5751 378.05 46.2265 378.07 50.6084C378.109 59.372 378.155 71.0571 378.186 82.7427C378.217 94.4286 378.233 106.114 378.21 114.88C378.198 119.263 378.177 122.914 378.143 125.469C378.126 126.748 378.106 127.749 378.082 128.429C378.07 128.77 378.058 129.025 378.045 129.192C378.039 129.277 378.033 129.328 378.029 129.352C378.026 129.367 378.028 129.354 378.036 129.327C378.04 129.317 378.054 129.273 378.087 129.223C378.105 129.195 378.225 129.012 378.477 129.001L378.5 129.5L378.523 129.999C378.779 129.988 378.903 129.801 378.925 129.768C378.962 129.712 378.98 129.659 378.987 129.638C379.003 129.588 379.011 129.54 379.016 129.511C379.027 129.444 379.035 129.36 379.042 129.268C379.057 129.08 379.07 128.808 379.082 128.463C379.105 127.772 379.126 126.762 379.143 125.482C379.177 122.922 379.198 119.266 379.21 114.882C379.233 106.114 379.217 94.4263 379.186 82.7401C379.155 71.0536 379.109 59.3679 379.07 50.6039C379.05 46.2219 379.033 42.5703 379.02 40.0142C379.014 38.7361 379.009 37.7319 379.005 37.0472C379.004 36.7049 379.002 36.4424 379.001 36.2655C379.001 36.1771 379.001 36.1101 379 36.0651C379 36.0426 379 36.0257 379 36.0144C379 36.0087 379 36.0045 379 36.0016C379 36.0002 379 35.9991 379 35.9984C379 35.9977 379 35.9973 378.5 36ZM378.5 129.5L378.477 129.001C362.02 129.76 353.746 138.264 349.615 146.59C347.556 150.74 346.528 154.837 346.015 157.894C345.758 159.423 345.629 160.695 345.565 161.586C345.533 162.032 345.516 162.383 345.508 162.623C345.504 162.744 345.502 162.837 345.501 162.9C345.501 162.932 345.5 162.956 345.5 162.973C345.5 162.981 345.5 162.988 345.5 162.992C345.5 162.994 345.5 162.996 345.5 162.998C345.5 162.998 345.5 162.999 345.5 162.999C345.5 163 345.5 163 346 163C346.5 163 346.5 163 346.5 163C346.5 163 346.5 163 346.5 163C346.5 162.999 346.5 162.998 346.5 162.996C346.5 162.993 346.5 162.988 346.5 162.981C346.5 162.967 346.5 162.945 346.501 162.916C346.502 162.859 346.504 162.772 346.508 162.657C346.515 162.428 346.531 162.09 346.562 161.658C346.625 160.794 346.75 159.554 347.001 158.059C347.503 155.069 348.507 151.072 350.51 147.035C354.504 138.986 362.48 130.74 378.523 129.999L378.5 129.5ZM346 163V162.5H250.5V163V163.5H346V163ZM250.5 163L250.999 162.971C250.494 154.146 248.158 147.649 244.912 142.875C241.666 138.102 237.528 135.079 233.461 133.172C229.397 131.267 225.403 130.476 222.427 130.159C220.939 130.001 219.702 129.961 218.836 129.961C218.402 129.961 218.061 129.971 217.827 129.981C217.71 129.986 217.62 129.991 217.558 129.995C217.527 129.997 217.503 129.998 217.487 130C217.479 130 217.472 130.001 217.468 130.001C217.465 130.001 217.464 130.001 217.462 130.001C217.462 130.001 217.461 130.002 217.461 130.002C217.46 130.002 217.46 130.002 217.5 130.5C217.54 130.998 217.54 130.998 217.54 130.998C217.54 130.998 217.54 130.998 217.541 130.998C217.541 130.998 217.542 130.998 217.544 130.998C217.547 130.998 217.552 130.998 217.558 130.997C217.572 130.996 217.592 130.995 217.62 130.993C217.676 130.989 217.76 130.985 217.87 130.98C218.091 130.971 218.418 130.961 218.836 130.961C219.672 130.961 220.873 130.999 222.322 131.153C225.221 131.462 229.101 132.233 233.037 134.078C236.969 135.921 240.956 138.836 244.085 143.437C247.214 148.039 249.504 154.354 250.001 163.029L250.5 163ZM217.5 130.5H218V35H217.5H217V130.5H217.5ZM217.5 35C217.5 35.5 217.5 35.5 217.501 35.5C217.501 35.5 217.502 35.5 217.503 35.5C217.504 35.5 217.506 35.5 217.508 35.5C217.512 35.5 217.519 35.4999 217.527 35.4999C217.544 35.4997 217.568 35.4994 217.599 35.4989C217.662 35.4978 217.753 35.4956 217.872 35.4914C218.109 35.4828 218.455 35.4659 218.895 35.4321C219.773 35.3646 221.026 35.2299 222.533 34.961C225.544 34.4234 229.581 33.3477 233.67 31.1923C241.875 26.8667 250.24 18.2144 251 1.02208L250.5 1L250 0.97792C249.258 17.7856 241.122 26.1333 233.203 30.3077C229.23 32.4023 225.298 33.4516 222.357 33.9765C220.887 34.2388 219.668 34.3698 218.818 34.4351C218.393 34.4677 218.061 34.4839 217.836 34.492C217.724 34.4961 217.638 34.4981 217.582 34.499C217.553 34.4995 217.532 34.4998 217.519 34.4999C217.512 34.4999 217.507 34.5 217.504 34.5C217.502 34.5 217.501 34.5 217.5 34.5C217.5 34.5 217.5 34.5 217.5 34.5C217.5 34.5 217.5 34.5 217.5 35ZM263.627 15V15.5H331.563V15V14.5H263.627V15ZM331.563 15L331.065 15.0466C332.649 31.9748 340.99 40.4923 348.97 44.7536C352.948 46.8776 356.822 47.9382 359.701 48.4683C361.142 48.7335 362.335 48.8664 363.171 48.933C363.589 48.9663 363.917 48.983 364.143 48.9915C364.256 48.9957 364.343 48.9978 364.402 48.9989C364.432 48.9994 364.455 48.9997 364.471 48.9999C364.479 48.9999 364.485 49 364.489 49C364.492 49 364.493 49 364.495 49C364.495 49 364.496 49 364.496 49C364.497 49 364.497 49 364.497 48.5C364.497 48 364.497 48 364.497 48C364.497 48 364.497 48 364.497 48C364.496 48 364.495 48 364.494 48C364.491 48 364.486 48 364.48 47.9999C364.467 47.9998 364.447 47.9995 364.421 47.9991C364.367 47.9981 364.287 47.9961 364.18 47.9922C363.968 47.9842 363.653 47.9683 363.25 47.9361C362.444 47.8719 361.285 47.7431 359.883 47.4848C357.076 46.9681 353.305 45.9349 349.441 43.8714C341.738 39.7577 333.612 31.5252 332.061 14.9534L331.563 15ZM364.497 48.5C363.997 48.5026 363.997 48.5028 363.997 48.5033C363.997 48.5039 363.997 48.5046 363.997 48.5057C363.997 48.5077 363.997 48.5108 363.997 48.5149C363.997 48.523 363.997 48.5353 363.997 48.5515C363.997 48.5839 363.998 48.6323 363.998 48.6962C363.999 48.8239 364 49.0134 364.001 49.2606C364.003 49.7549 364.007 50.48 364.011 51.4028C364.02 53.2484 364.032 55.8851 364.046 59.049C364.073 65.377 364.106 73.8142 364.128 82.2513C364.15 90.6886 364.16 99.125 364.144 105.452C364.136 108.616 364.121 111.25 364.097 113.093C364.085 114.015 364.071 114.736 364.055 115.225C364.047 115.471 364.038 115.652 364.029 115.769C364.025 115.83 364.021 115.862 364.019 115.873C364.017 115.883 364.02 115.864 364.029 115.834C364.033 115.823 364.048 115.777 364.083 115.723C364.101 115.696 364.23 115.5 364.497 115.5V116V116.5C364.767 116.5 364.899 116.302 364.92 116.27C364.957 116.213 364.975 116.161 364.981 116.141C364.996 116.095 365.003 116.052 365.007 116.029C365.015 115.976 365.021 115.911 365.026 115.844C365.037 115.705 365.046 115.507 365.054 115.259C365.071 114.759 365.085 114.03 365.097 113.106C365.121 111.258 365.136 108.619 365.144 105.454C365.16 99.125 365.15 90.6864 365.128 82.2487C365.106 73.8108 365.073 65.373 365.046 59.0447C365.032 55.8806 365.02 53.2438 365.011 51.398C365.007 50.4751 365.003 49.75 365.001 49.2556C365 49.0084 364.999 48.8188 364.998 48.6911C364.998 48.6272 364.997 48.5788 364.997 48.5464C364.997 48.5301 364.997 48.5179 364.997 48.5097C364.997 48.5056 364.997 48.5026 364.997 48.5005C364.997 48.4995 364.997 48.4987 364.997 48.4982C364.997 48.4977 364.997 48.4974 364.497 48.5ZM364.497 116V115.5C349.265 115.5 340.886 123.898 336.341 132.261C334.072 136.436 332.755 140.605 332.004 143.727C331.629 145.289 331.394 146.592 331.254 147.506C331.183 147.963 331.136 148.323 331.107 148.57C331.092 148.694 331.082 148.789 331.075 148.854C331.072 148.886 331.069 148.911 331.068 148.928C331.067 148.937 331.066 148.943 331.066 148.948C331.066 148.95 331.065 148.952 331.065 148.953C331.065 148.954 331.065 148.955 331.065 148.955C331.065 148.955 331.065 148.956 331.563 149C332.061 149.044 332.061 149.044 332.061 149.044C332.061 149.044 332.061 149.044 332.061 149.044C332.061 149.043 332.061 149.042 332.061 149.04C332.062 149.037 332.062 149.031 332.063 149.024C332.064 149.009 332.067 148.987 332.07 148.957C332.076 148.897 332.086 148.807 332.1 148.689C332.128 148.452 332.173 148.103 332.242 147.658C332.379 146.767 332.608 145.492 332.976 143.961C333.713 140.895 335.004 136.814 337.219 132.739C341.641 124.602 349.729 116.5 364.497 116.5V116ZM331.563 149V148.5H263.627V149V149.5H331.563V149ZM263.627 149L264.126 148.976C263.413 134.277 254.861 125.894 246.531 121.208C242.369 118.867 238.256 117.442 235.186 116.603C233.65 116.183 232.373 115.909 231.477 115.739C231.03 115.655 230.678 115.596 230.436 115.558C230.315 115.54 230.222 115.526 230.159 115.517C230.127 115.513 230.103 115.51 230.086 115.507C230.078 115.506 230.071 115.505 230.067 115.505C230.065 115.505 230.063 115.504 230.062 115.504C230.061 115.504 230.061 115.504 230.06 115.504C230.06 115.504 230.059 115.504 229.997 116C229.935 116.496 229.935 116.496 229.935 116.496C229.935 116.496 229.935 116.496 229.935 116.496C229.936 116.496 229.937 116.496 229.939 116.497C229.942 116.497 229.947 116.498 229.955 116.499C229.969 116.501 229.991 116.504 230.02 116.508C230.079 116.516 230.167 116.529 230.283 116.547C230.514 116.583 230.855 116.639 231.292 116.722C232.164 116.887 233.415 117.155 234.922 117.567C237.938 118.392 241.97 119.789 246.04 122.079C254.174 126.655 262.436 134.772 263.127 149.024L263.627 149ZM229.997 116H230.497V48.5H229.997H229.497V116H229.997ZM229.997 48.5C229.964 48.9989 229.964 48.9989 229.965 48.999C229.965 48.999 229.966 48.999 229.966 48.9991C229.968 48.9991 229.969 48.9993 229.972 48.9994C229.976 48.9997 229.982 49 229.99 49.0005C230.006 49.0014 230.029 49.0027 230.06 49.0041C230.12 49.0069 230.208 49.0105 230.321 49.0136C230.549 49.0198 230.88 49.024 231.302 49.0165C232.145 49.0016 233.35 48.94 234.805 48.7538C237.713 48.3816 241.633 47.5102 245.673 45.5106C253.781 41.4964 262.292 32.9707 264.124 15.0509L263.627 15L263.129 14.9491C261.332 32.5293 253.028 40.7536 245.229 44.6144C241.314 46.5523 237.508 47.3997 234.678 47.7619C233.264 47.9428 232.096 48.0023 231.284 48.0167C230.879 48.0239 230.562 48.0198 230.348 48.014C230.242 48.0111 230.161 48.0078 230.107 48.0052C230.08 48.0039 230.06 48.0029 230.047 48.0021C230.041 48.0018 230.036 48.0015 230.033 48.0013C230.032 48.0012 230.031 48.0012 230.031 48.0011C230.03 48.0011 230.03 48.0011 230.03 48.0011C230.03 48.0011 230.03 48.0011 229.997 48.5ZM335.501 82.9874C335.875 83.3195 335.875 83.3193 335.875 83.319C335.875 83.3189 335.876 83.3186 335.876 83.3183C335.876 83.3177 335.877 83.317 335.878 83.3161C335.879 83.3143 335.882 83.3119 335.884 83.3089C335.89 83.3028 335.897 83.2941 335.907 83.2829C335.926 83.2606 335.953 83.2282 335.989 83.1859C336.059 83.1013 336.16 82.9773 336.284 82.8156C336.534 82.4923 336.879 82.0181 337.272 81.4076C338.056 80.1874 339.027 78.418 339.782 76.2171C341.294 71.8076 341.93 65.6664 338.446 58.772L338 58.9975L337.554 59.223C340.892 65.8286 340.279 71.6823 338.836 75.8928C338.113 78.0018 337.181 79.6987 336.43 80.8671C336.055 81.451 335.726 81.9018 335.492 82.2049C335.376 82.3564 335.283 82.4709 335.22 82.5466C335.188 82.5845 335.164 82.6126 335.149 82.6308C335.141 82.6399 335.135 82.6465 335.131 82.6506C335.13 82.6526 335.128 82.654 335.128 82.6548C335.127 82.6552 335.127 82.6554 335.127 82.6555C335.127 82.6555 335.127 82.6555 335.127 82.6555C335.127 82.6554 335.127 82.6552 335.501 82.9874ZM338 58.9975L338.446 58.772C334.817 51.5913 329.026 49.1406 324.162 48.4968C321.738 48.1758 319.543 48.3026 317.956 48.5087C317.162 48.6119 316.517 48.7353 316.07 48.8334C315.846 48.8824 315.671 48.9252 315.551 48.9561C315.49 48.9715 315.444 48.984 315.412 48.9927C315.396 48.9971 315.384 49.0006 315.375 49.003C315.371 49.0043 315.367 49.0052 315.365 49.006C315.364 49.0063 315.363 49.0066 315.362 49.0068C315.361 49.0069 315.361 49.0071 315.361 49.0071C315.361 49.0072 315.36 49.0073 315.5 49.4874C315.64 49.9674 315.64 49.9675 315.639 49.9675C315.639 49.9675 315.639 49.9675 315.64 49.9675C315.64 49.9675 315.64 49.9673 315.641 49.9672C315.642 49.9668 315.644 49.9662 315.647 49.9653C315.653 49.9635 315.663 49.9608 315.677 49.9571C315.704 49.9497 315.745 49.9387 315.799 49.9246C315.909 49.8966 316.072 49.8566 316.284 49.8102C316.707 49.7175 317.323 49.5994 318.085 49.5004C319.611 49.3022 321.715 49.1815 324.031 49.4881C328.649 50.0994 334.107 52.4037 337.554 59.223L338 58.9975ZM315.5 116.988L315.525 117.488C318.398 117.344 322.233 117.344 326.28 115.914C330.349 114.477 334.61 111.605 338.419 105.771L338 105.497L337.581 105.224C333.889 110.88 329.802 113.609 325.947 114.971C322.069 116.342 318.404 116.342 315.475 116.489L315.5 116.988ZM338 105.497L338.435 105.744C341.777 99.8305 341.128 94.0444 339.661 89.7677C338.928 87.63 337.988 85.861 337.232 84.6263C336.854 84.0084 336.52 83.5229 336.281 83.1904C336.161 83.0241 336.064 82.896 335.997 82.8086C335.963 82.7649 335.937 82.7313 335.918 82.7083C335.909 82.6968 335.902 82.6879 335.897 82.6816C335.894 82.6785 335.892 82.6761 335.891 82.6743C335.89 82.6734 335.89 82.6727 335.889 82.6721C335.889 82.6718 335.889 82.6715 335.889 82.6714C335.888 82.6712 335.888 82.6709 335.501 82.9874C335.114 83.3038 335.114 83.3037 335.114 83.3036C335.114 83.3036 335.114 83.3036 335.114 83.3036C335.114 83.3037 335.114 83.304 335.115 83.3045C335.115 83.3054 335.117 83.3069 335.118 83.3092C335.122 83.3136 335.128 83.3207 335.135 83.3303C335.151 83.3496 335.174 83.3793 335.205 83.4191C335.266 83.4986 335.356 83.6182 335.47 83.7754C335.696 84.09 336.015 84.5545 336.379 85.1485C337.107 86.3375 338.011 88.0398 338.715 90.0922C340.123 94.1955 340.723 99.6645 337.565 105.251L338 105.497ZM277.5 116.988C277.038 117.179 277.038 117.179 277.038 117.18C277.038 117.18 277.038 117.18 277.038 117.181C277.039 117.181 277.039 117.182 277.039 117.184C277.04 117.186 277.042 117.189 277.043 117.193C277.047 117.201 277.052 117.213 277.058 117.228C277.071 117.257 277.09 117.3 277.115 117.356C277.164 117.466 277.239 117.627 277.338 117.829C277.537 118.233 277.836 118.806 278.242 119.488C279.054 120.849 280.296 122.65 282.018 124.405C285.467 127.921 290.858 131.264 298.55 130.495L298.5 129.997L298.45 129.5C291.142 130.231 286.033 127.07 282.732 123.705C281.079 122.02 279.883 120.288 279.101 118.976C278.71 118.32 278.424 117.771 278.236 117.388C278.142 117.197 278.072 117.047 278.027 116.946C278.004 116.895 277.987 116.857 277.977 116.832C277.971 116.819 277.967 116.81 277.965 116.804C277.964 116.801 277.963 116.799 277.962 116.798C277.962 116.797 277.962 116.797 277.962 116.797C277.962 116.797 277.962 116.797 277.962 116.797C277.962 116.797 277.962 116.797 277.5 116.988ZM315.5 116.988C315.007 116.903 315.007 116.902 315.007 116.902C315.007 116.902 315.007 116.902 315.007 116.902C315.007 116.902 315.007 116.902 315.007 116.902C315.007 116.903 315.007 116.904 315.007 116.906C315.006 116.91 315.005 116.917 315.003 116.926C314.999 116.944 314.994 116.973 314.985 117.012C314.968 117.09 314.941 117.207 314.901 117.358C314.821 117.66 314.69 118.098 314.486 118.631C314.078 119.697 313.382 121.138 312.23 122.624C309.936 125.584 305.809 128.764 298.45 129.5L298.5 129.997L298.55 130.495C306.191 129.731 310.564 126.406 313.02 123.237C314.243 121.658 314.984 120.127 315.42 118.989C315.638 118.419 315.78 117.946 315.868 117.613C315.912 117.447 315.943 117.315 315.963 117.223C315.972 117.178 315.98 117.142 315.985 117.117C315.987 117.104 315.989 117.094 315.99 117.087C315.991 117.083 315.991 117.08 315.992 117.078C315.992 117.077 315.992 117.076 315.992 117.075C315.992 117.075 315.992 117.075 315.992 117.074C315.993 117.074 315.993 117.074 315.5 116.988ZM258 82.9874C257.614 82.6698 257.613 82.67 257.613 82.6703C257.613 82.6704 257.613 82.6708 257.612 82.671C257.612 82.6716 257.611 82.6723 257.611 82.6731C257.609 82.6747 257.608 82.6769 257.606 82.6795C257.601 82.6849 257.595 82.6923 257.588 82.7018C257.573 82.7208 257.551 82.7481 257.524 82.7835C257.47 82.8545 257.394 82.9582 257.299 83.0941C257.109 83.3657 256.847 83.7659 256.55 84.2887C255.955 85.334 255.22 86.8714 254.645 88.8531C253.493 92.8224 252.991 98.558 255.529 105.666L256 105.497L256.471 105.329C254.01 98.4369 254.507 92.9175 255.605 89.1317C256.155 87.236 256.857 85.7707 257.419 84.783C257.7 84.2892 257.945 83.9151 258.119 83.6667C258.205 83.5425 258.274 83.4497 258.32 83.3892C258.343 83.3589 258.361 83.3367 258.372 83.3226C258.377 83.3156 258.381 83.3106 258.384 83.3076C258.385 83.3062 258.386 83.3052 258.386 83.3048C258.386 83.3045 258.386 83.3045 258.386 83.3045C258.386 83.3045 258.386 83.3046 258.386 83.3046C258.386 83.3048 258.386 83.305 258 82.9874ZM256 105.497L255.529 105.666C257.611 111.497 263.185 114.437 268.105 115.923C270.579 116.67 272.921 117.06 274.644 117.265C275.506 117.367 276.215 117.423 276.709 117.453C276.957 117.468 277.151 117.477 277.283 117.482C277.35 117.484 277.401 117.486 277.436 117.487C277.454 117.487 277.467 117.488 277.476 117.488C277.481 117.488 277.484 117.488 277.487 117.488C277.488 117.488 277.489 117.488 277.49 117.488C277.49 117.488 277.491 117.488 277.491 117.488C277.491 117.488 277.491 117.488 277.5 116.988C277.508 116.488 277.508 116.488 277.508 116.488C277.508 116.488 277.508 116.488 277.508 116.488C277.507 116.488 277.507 116.488 277.506 116.488C277.504 116.488 277.502 116.488 277.498 116.488C277.49 116.488 277.478 116.488 277.463 116.487C277.431 116.486 277.384 116.485 277.321 116.483C277.195 116.478 277.009 116.469 276.77 116.455C276.292 116.426 275.603 116.371 274.762 116.272C273.079 116.072 270.796 115.691 268.395 114.965C263.565 113.507 258.389 110.701 256.471 105.329L256 105.497ZM277.5 49.4874L277.507 48.9874C274.549 48.9469 270.736 48.9439 267.089 49.9125C263.43 50.8845 259.907 52.8436 257.571 56.7404L258 56.9975L258.429 57.2546C260.594 53.6413 263.861 51.8047 267.346 50.879C270.845 49.9497 274.531 49.9468 277.493 49.9873L277.5 49.4874ZM258 56.9975L257.6 56.6975C252.983 62.8545 252.992 69.5181 254.137 74.6032C254.709 77.1456 255.567 79.304 256.281 80.8266C256.639 81.5885 256.961 82.1928 257.195 82.6082C257.312 82.8159 257.407 82.9765 257.473 83.0861C257.506 83.1409 257.532 83.1829 257.55 83.2117C257.559 83.2261 257.566 83.2372 257.571 83.2449C257.573 83.2488 257.575 83.2518 257.577 83.254C257.577 83.255 257.578 83.2559 257.578 83.2566C257.579 83.2569 257.579 83.2572 257.579 83.2574C257.579 83.2577 257.579 83.2579 258 82.9874C258.42 82.7168 258.42 82.7169 258.42 82.717C258.42 82.717 258.42 82.717 258.42 82.7169C258.42 82.7167 258.42 82.7163 258.419 82.7157C258.419 82.7144 258.417 82.7124 258.415 82.7095C258.412 82.7036 258.406 82.6945 258.398 82.6821C258.383 82.6572 258.359 82.6192 258.329 82.5686C258.267 82.4674 258.178 82.3158 258.066 82.1176C257.843 81.7212 257.533 81.1389 257.187 80.402C256.495 78.9269 255.665 76.8383 255.113 74.3836C254.007 69.4743 254.017 63.143 258.4 57.2975L258 56.9975ZM315.5 49.4874C315.969 49.3136 315.969 49.3134 315.969 49.313C315.969 49.3129 315.968 49.3125 315.968 49.3122C315.968 49.3115 315.968 49.3106 315.967 49.3095C315.966 49.3074 315.965 49.3044 315.964 49.3006C315.961 49.293 315.957 49.2822 315.952 49.2683C315.941 49.2405 315.925 49.2004 315.904 49.1486C315.862 49.0451 315.8 48.8953 315.716 48.7057C315.548 48.3266 315.295 47.7881 314.948 47.1433C314.256 45.8548 313.189 44.136 311.69 42.4154C308.691 38.9721 303.939 35.5002 297.001 35.5V36V36.5C303.563 36.5002 308.061 39.7719 310.936 43.0722C312.374 44.7234 313.401 46.3764 314.068 47.6167C314.401 48.2364 314.643 48.7516 314.802 49.11C314.881 49.2892 314.939 49.4291 314.977 49.5232C314.996 49.5702 315.01 49.6058 315.019 49.6291C315.023 49.6407 315.027 49.6492 315.029 49.6546C315.03 49.6573 315.03 49.6592 315.031 49.6603C315.031 49.6609 315.031 49.6612 315.031 49.6613C315.031 49.6614 315.031 49.6614 315.031 49.6614C315.031 49.6613 315.031 49.6611 315.5 49.4874ZM297.001 36L297.001 35.5C290.928 35.4995 286.903 36.794 283.898 39.2126C280.911 41.6165 278.996 45.0848 277.046 49.2765L277.5 49.4874L277.953 49.6982C279.9 45.5133 281.735 42.2375 284.525 39.9916C287.297 37.7605 291.074 36.4995 297.001 36.5L297.001 36ZM304.5 82H304C304 86.1421 300.642 89.5 296.5 89.5V90V90.5C301.194 90.5 305 86.6944 305 82H304.5ZM296.5 90V89.5C292.358 89.5 289 86.1421 289 82H288.5H288C288 86.6944 291.806 90.5 296.5 90.5V90ZM288.5 82H289C289 77.8579 292.358 74.5 296.5 74.5V74V73.5C291.806 73.5 288 77.3056 288 82H288.5ZM296.5 74V74.5C300.642 74.5 304 77.8579 304 82H304.5H305C305 77.3056 301.194 73.5 296.5 73.5V74ZM301.5 75L301.906 75.2915C304.586 71.5567 310.897 66.9763 317.064 64.0125C320.141 62.5337 323.139 61.4786 325.587 61.1268C328.079 60.7687 329.794 61.1629 330.593 62.2888L331.001 61.9992L331.409 61.7097C330.255 60.0851 327.992 59.7709 325.445 60.1369C322.855 60.5091 319.754 61.6105 316.631 63.1112C310.399 66.1062 303.914 70.7766 301.094 74.7085L301.5 75ZM331.001 61.9992L330.593 62.2888C331.391 63.4119 331.215 64.9421 330.037 66.8334C328.87 68.7088 326.8 70.7853 324.16 72.8309C318.885 76.9179 311.466 80.7809 304.867 82.5955L305 83.0776L305.133 83.5597C311.867 81.7076 319.403 77.7817 324.772 73.6214C327.454 71.5434 329.629 69.3817 330.886 67.362C332.134 65.3584 332.565 63.3369 331.409 61.7097L331.001 61.9992ZM305 83.0776L304.881 83.5632C309.546 84.7091 316.791 88.4017 322.477 92.4459C325.319 94.4666 327.736 96.5509 329.239 98.4187C329.992 99.3541 330.493 100.207 330.717 100.948C330.938 101.679 330.881 102.261 330.58 102.729L331.001 103L331.422 103.27C331.924 102.488 331.953 101.583 331.674 100.659C331.397 99.745 330.811 98.7762 330.018 97.7918C328.432 95.8201 325.93 93.6739 323.057 91.6309C317.315 87.5476 309.954 83.7794 305.119 82.592L305 83.0776ZM331.001 103L330.58 102.729C329.952 103.708 328.59 104.073 326.447 103.717C324.339 103.368 321.68 102.347 318.774 100.867C312.969 97.91 306.309 93.1869 301.339 88.631L301.001 88.9995L300.663 89.3681C305.693 93.9788 312.427 98.756 318.32 101.758C321.262 103.256 324.027 104.33 326.283 104.704C328.503 105.072 330.445 104.791 331.422 103.27L331.001 103ZM301.001 88.9995L300.514 89.1112C301.417 93.0513 302.041 101.375 301.502 108.713C301.232 112.383 300.674 115.764 299.737 118.212C298.783 120.701 297.534 122 296 122V122.5V123C298.217 123 299.697 121.111 300.671 118.569C301.66 115.986 302.227 112.491 302.499 108.786C303.044 101.375 302.419 92.9477 301.488 88.8878L301.001 88.9995ZM296 122.5V122C295.281 122 294.659 121.618 294.111 120.808C293.554 119.985 293.112 118.773 292.778 117.257C292.11 114.233 291.907 110.171 291.938 106.072C291.969 101.981 292.233 97.8864 292.491 94.8123C292.619 93.2759 292.746 91.9958 292.84 91.1001C292.887 90.6523 292.926 90.3007 292.954 90.0613C292.967 89.9417 292.978 89.85 292.985 89.7885C292.989 89.7577 292.992 89.7344 292.994 89.7189C292.995 89.7112 292.995 89.7054 292.996 89.7015C292.996 89.6996 292.996 89.6982 292.996 89.6973C292.996 89.6968 292.996 89.6965 292.996 89.6963C292.996 89.6961 292.996 89.696 292.5 89.6356C292.004 89.5752 292.004 89.5754 292.004 89.5757C292.004 89.5759 292.004 89.5764 292.003 89.5769C292.003 89.578 292.003 89.5795 292.003 89.5816C292.002 89.5857 292.002 89.5918 292.001 89.5999C291.999 89.616 291.996 89.6399 291.992 89.6713C291.985 89.7341 291.974 89.827 291.96 89.948C291.933 90.19 291.893 90.5445 291.846 90.9953C291.751 91.8969 291.623 93.1843 291.494 94.729C291.236 97.817 290.969 101.939 290.938 106.064C290.906 110.181 291.109 114.335 291.801 117.473C292.146 119.038 292.622 120.393 293.283 121.368C293.951 122.355 294.845 123 296 123V122.5ZM292.5 89.6356C292.207 89.2303 292.207 89.2304 292.207 89.2305C292.207 89.2306 292.206 89.2308 292.206 89.2311C292.205 89.2317 292.204 89.2326 292.202 89.2338C292.199 89.2361 292.194 89.2397 292.187 89.2445C292.174 89.2541 292.154 89.2685 292.128 89.2875C292.075 89.3254 291.996 89.3817 291.893 89.455C291.687 89.6016 291.384 89.8158 290.997 90.0861C290.223 90.6266 289.114 91.3907 287.775 92.2844C285.094 94.0725 281.495 96.3761 277.811 98.4443C274.119 100.517 270.375 102.335 267.396 103.173C265.902 103.593 264.652 103.751 263.718 103.606C262.814 103.467 262.244 103.056 261.97 102.324L261.501 102.5L261.033 102.676C261.462 103.819 262.389 104.413 263.565 104.595C264.71 104.772 266.123 104.57 267.667 104.135C270.765 103.264 274.594 101.397 278.301 99.3163C282.015 97.2309 285.637 94.9121 288.33 93.1163C289.676 92.218 290.791 91.4498 291.57 90.9059C291.959 90.6339 292.264 90.418 292.473 90.2699C292.577 90.1959 292.657 90.1388 292.71 90.1001C292.737 90.0808 292.758 90.0661 292.772 90.0561C292.779 90.0512 292.784 90.0474 292.787 90.0448C292.789 90.0436 292.79 90.0426 292.791 90.0419C292.792 90.0416 292.792 90.0413 292.792 90.0412C292.793 90.041 292.793 90.0409 292.5 89.6356ZM261.501 102.5L261.97 102.324C261.298 100.533 261.747 98.6769 263.104 96.7658C264.466 94.8466 266.704 92.9337 269.464 91.104C274.978 87.4485 282.435 84.2144 288.67 81.97L288.5 81.4995L288.331 81.0291C282.066 83.2846 274.523 86.5507 268.912 90.2705C266.109 92.1283 263.754 94.1218 262.288 96.1871C260.817 98.2604 260.205 100.467 261.033 102.676L261.501 102.5ZM288.5 81.4995L288.618 81.0135C283.812 79.8535 276.736 77.5177 271.125 74.2911C268.317 72.6768 265.909 70.8577 264.329 68.8782C262.755 66.9067 262.029 64.8131 262.49 62.6015L262 62.4995L261.511 62.3975C260.972 64.986 261.85 67.3757 263.547 69.5021C265.238 71.6205 267.767 73.5139 270.626 75.158C276.348 78.448 283.522 80.8122 288.383 81.9856L288.5 81.4995ZM262 62.4995L262.49 62.6015C262.722 61.4895 263.175 60.7761 263.764 60.3405C264.357 59.9016 265.15 59.6976 266.148 59.7306C268.167 59.7974 270.845 60.8279 273.822 62.4631C279.751 65.719 286.592 71.2143 291.164 75.37L291.5 75L291.836 74.63C287.241 70.4525 280.332 64.8975 274.303 61.5865C271.302 59.9382 268.449 58.8061 266.181 58.7311C265.036 58.6933 263.997 58.9236 263.169 59.5367C262.336 60.1532 261.779 61.1096 261.511 62.3975L262 62.4995ZM291.5 75L291.986 74.8827C290.832 70.1029 290.085 62.0294 290.561 55.1597C290.8 51.7215 291.342 48.6287 292.267 46.4113C293.199 44.1748 294.439 43 296 43V42.5V42C293.812 42 292.322 43.6794 291.344 46.0263C290.357 48.3923 289.805 51.612 289.564 55.0905C289.081 62.0542 289.834 70.2307 291.014 75.1173L291.5 75ZM296 42.5V43C298.422 43 300.047 44.1425 301.134 46.0877C302.242 48.0696 302.783 50.883 302.938 54.1488C303.248 60.6711 302.008 68.7439 301.006 74.92L301.5 75L301.994 75.08C302.992 68.923 304.252 60.7459 303.937 54.1014C303.78 50.7839 303.228 47.7847 302.007 45.5999C300.766 43.3784 298.828 42 296 42V42.5ZM0.5 20.5H0V142H0.5H1V20.5H0.5ZM0.5 142V142.5H20.5V142V141.5H0.5V142ZM20.5 142H20V162H20.5H21V142H20.5ZM20.5 162V162.5H141V162V161.5H20.5V162ZM141 162H141.5V142H141H140.5V162H141ZM141 142V142.5H162V142V141.5H141V142ZM162 142H162.5V20.5H162H161.5V142H162ZM162 20.5V20H141V20.5V21H162V20.5ZM141 20.5H141.5V0.5H141H140.5V20.5H141ZM141 0.5V0H20.5V0.5V1H141V0.5ZM20.5 0.5H20V20.5H20.5H21V0.5H20.5ZM20.5 20.5V20H0.5V20.5V21H20.5V20.5ZM13 34.4799H12.5V128.52H13H13.5V34.4799H13ZM13 128.52V129.02H33.4799V128.52V128.02H13V128.52ZM33.4799 128.52H32.9799V149H33.4799H33.9799V128.52H33.4799ZM33.4799 149V149.5H127.746V149V148.5H33.4799V149ZM127.746 149H128.246V128.52H127.746H127.246V149H127.746ZM127.746 128.52V129.02H148V128.52V128.02H127.746V128.52ZM148 128.52H148.5V34.4799H148H147.5V128.52H148ZM148 34.4799V33.9799H127.746V34.4799V34.9799H148V34.4799ZM127.746 34.4799H128.246V14H127.746H127.246V34.4799H127.746ZM127.746 14V13.5H33.4799V14V14.5H127.746V14ZM33.4799 14H32.9799V34.4799H33.4799H33.9799V14H33.4799ZM33.4799 34.4799V33.9799H13V34.4799V34.9799H33.4799V34.4799ZM26.5 82.5L26.8749 82.8308C28.6985 80.7641 30.426 79.7695 31.968 79.4003C33.5089 79.0314 34.9158 79.2746 36.121 79.7744C37.3313 80.2762 38.3296 81.0338 39.0299 81.6738C39.3786 81.9925 39.6499 82.2788 39.8328 82.4841C39.9242 82.5866 39.9933 82.6686 40.0388 82.724C40.0616 82.7517 40.0784 82.7727 40.0891 82.7862C40.0945 82.793 40.0983 82.7979 40.1006 82.8009C40.1017 82.8023 40.1025 82.8033 40.1029 82.8038C40.1031 82.804 40.1032 82.8042 40.1031 82.8041C40.1031 82.8041 40.1031 82.804 40.1031 82.804C40.103 82.8039 40.1028 82.8037 40.5 82.5C40.8972 82.1963 40.897 82.196 40.8968 82.1958C40.8967 82.1956 40.8965 82.1953 40.8963 82.1951C40.8959 82.1945 40.8954 82.1939 40.8947 82.1931C40.8935 82.1915 40.8919 82.1895 40.8899 82.1869C40.8859 82.1817 40.8803 82.1746 40.8731 82.1655C40.8588 82.1474 40.8382 82.1217 40.8115 82.0892C40.7581 82.0243 40.6803 81.932 40.5793 81.8187C40.3775 81.5922 40.0823 81.2809 39.7045 80.9356C38.9516 80.2475 37.8562 79.4113 36.504 78.8506C35.1467 78.2879 33.5224 77.9999 31.7351 78.4278C29.949 78.8555 28.0515 79.9859 26.1251 82.1692L26.5 82.5ZM40.5 82.5C40.1119 82.1847 40.1121 82.1845 40.1122 82.1844C40.1122 82.1844 40.1123 82.1843 40.1123 82.1843C40.1123 82.1842 40.1122 82.1843 40.1121 82.1845C40.1117 82.185 40.111 82.1859 40.1099 82.1872C40.1076 82.19 40.1038 82.1945 40.0985 82.2008C40.0879 82.2135 40.0711 82.2331 40.0485 82.2591C40.0032 82.311 39.9342 82.388 39.843 82.4843C39.6605 82.6771 39.3896 82.9462 39.0411 83.2459C38.3418 83.8475 37.3431 84.5611 36.1307 85.0342C34.9226 85.5057 33.5095 85.7361 31.9615 85.3872C30.4136 85.0384 28.6856 84.1002 26.8648 82.158L26.5 82.5L26.1352 82.842C28.0644 84.8998 29.9614 85.9616 31.7416 86.3628C33.5217 86.7639 35.1399 86.4943 36.4943 85.9658C37.8444 85.4389 38.9394 84.6525 39.6933 84.0041C40.0714 83.6788 40.3669 83.3854 40.5691 83.172C40.6703 83.0651 40.7483 82.9781 40.8019 82.9167C40.8287 82.886 40.8493 82.8617 40.8638 82.8446C40.871 82.836 40.8766 82.8292 40.8807 82.8243C40.8827 82.8218 40.8843 82.8199 40.8856 82.8184C40.8862 82.8176 40.8867 82.817 40.8871 82.8165C40.8873 82.8162 40.8876 82.8159 40.8877 82.8158C40.8879 82.8155 40.8881 82.8153 40.5 82.5ZM121 82.5L121.375 82.8308C123.198 80.7641 124.926 79.7695 126.468 79.4003C128.009 79.0314 129.416 79.2746 130.621 79.7744C131.831 80.2762 132.83 81.0338 133.53 81.6738C133.879 81.9925 134.15 82.2788 134.333 82.4841C134.424 82.5866 134.493 82.6686 134.539 82.724C134.562 82.7517 134.578 82.7727 134.589 82.7862C134.594 82.793 134.598 82.7979 134.601 82.8009C134.602 82.8023 134.603 82.8033 134.603 82.8038C134.603 82.804 134.603 82.8042 134.603 82.8041C134.603 82.8041 134.603 82.804 134.603 82.804C134.603 82.8039 134.603 82.8037 135 82.5C135.397 82.1963 135.397 82.196 135.397 82.1958C135.397 82.1956 135.396 82.1953 135.396 82.1951C135.396 82.1945 135.395 82.1939 135.395 82.1931C135.394 82.1915 135.392 82.1895 135.39 82.1869C135.386 82.1817 135.38 82.1746 135.373 82.1655C135.359 82.1474 135.338 82.1217 135.312 82.0892C135.258 82.0243 135.18 81.932 135.079 81.8187C134.877 81.5922 134.582 81.2809 134.205 80.9356C133.452 80.2475 132.356 79.4113 131.004 78.8506C129.647 78.2879 128.022 77.9999 126.235 78.4278C124.449 78.8555 122.552 79.9859 120.625 82.1692L121 82.5ZM135 82.5C134.612 82.1847 134.612 82.1845 134.612 82.1844C134.612 82.1844 134.612 82.1843 134.612 82.1843C134.612 82.1842 134.612 82.1843 134.612 82.1845C134.612 82.185 134.611 82.1859 134.61 82.1872C134.608 82.19 134.604 82.1945 134.598 82.2008C134.588 82.2135 134.571 82.2331 134.548 82.2591C134.503 82.311 134.434 82.388 134.343 82.4843C134.16 82.6771 133.89 82.9462 133.541 83.2459C132.842 83.8475 131.843 84.5611 130.631 85.0342C129.423 85.5057 128.01 85.7361 126.461 85.3872C124.914 85.0384 123.186 84.1002 121.365 82.158L121 82.5L120.635 82.842C122.564 84.8998 124.461 85.9616 126.242 86.3628C128.022 86.7639 129.64 86.4943 130.994 85.9658C132.344 85.4389 133.439 84.6525 134.193 84.0041C134.571 83.6788 134.867 83.3854 135.069 83.172C135.17 83.0651 135.248 82.9781 135.302 82.9167C135.329 82.886 135.349 82.8617 135.364 82.8446C135.371 82.836 135.377 82.8292 135.381 82.8243C135.383 82.8218 135.384 82.8199 135.386 82.8184C135.386 82.8176 135.387 82.817 135.387 82.8165C135.387 82.8162 135.388 82.8159 135.388 82.8158C135.388 82.8155 135.388 82.8153 135 82.5ZM81 136L81.3308 135.625C79.2641 133.802 78.2695 132.074 77.9003 130.532C77.5314 128.991 77.7746 127.584 78.2744 126.379C78.7762 125.169 79.5338 124.17 80.1738 123.47C80.4925 123.121 80.7788 122.85 80.9841 122.667C81.0866 122.576 81.1686 122.507 81.224 122.461C81.2517 122.438 81.2727 122.422 81.2862 122.411C81.293 122.406 81.2979 122.402 81.3009 122.399C81.3023 122.398 81.3033 122.397 81.3038 122.397C81.304 122.397 81.3042 122.397 81.3041 122.397C81.3041 122.397 81.304 122.397 81.304 122.397C81.3039 122.397 81.3037 122.397 81 122C80.6963 121.603 80.696 121.603 80.6958 121.603C80.6956 121.603 80.6953 121.604 80.6951 121.604C80.6945 121.604 80.6939 121.605 80.6931 121.605C80.6915 121.606 80.6895 121.608 80.6869 121.61C80.6817 121.614 80.6746 121.62 80.6655 121.627C80.6474 121.641 80.6217 121.662 80.5892 121.688C80.5243 121.742 80.432 121.82 80.3187 121.921C80.0922 122.123 79.7809 122.418 79.4356 122.795C78.7475 123.548 77.9113 124.644 77.3506 125.996C76.7879 127.353 76.4999 128.978 76.9278 130.765C77.3555 132.551 78.4859 134.448 80.6692 136.375L81 136ZM81 122C80.6847 122.388 80.6845 122.388 80.6844 122.388C80.6844 122.388 80.6843 122.388 80.6843 122.388C80.6842 122.388 80.6843 122.388 80.6845 122.388C80.685 122.388 80.6859 122.389 80.6872 122.39C80.69 122.392 80.6945 122.396 80.7008 122.402C80.7135 122.412 80.7331 122.429 80.7591 122.452C80.811 122.497 80.888 122.566 80.9843 122.657C81.1771 122.84 81.4462 123.11 81.7459 123.459C82.3475 124.158 83.0611 125.157 83.5342 126.369C84.0057 127.577 84.2361 128.99 83.8872 130.539C83.5384 132.086 82.6002 133.814 80.658 135.635L81 136L81.342 136.365C83.3998 134.436 84.4616 132.539 84.8628 130.758C85.2639 128.978 84.9943 127.36 84.4658 126.006C83.9389 124.656 83.1525 123.561 82.5041 122.807C82.1788 122.429 81.8854 122.133 81.672 121.931C81.5651 121.83 81.4781 121.752 81.4167 121.698C81.386 121.671 81.3617 121.651 81.3446 121.636C81.336 121.629 81.3292 121.623 81.3243 121.619C81.3218 121.617 81.3199 121.616 81.3184 121.614C81.3176 121.614 81.317 121.613 81.3165 121.613C81.3162 121.613 81.3159 121.612 81.3158 121.612C81.3155 121.612 81.3153 121.612 81 122ZM81 41L81.3308 40.6251C79.2641 38.8015 78.2695 37.074 77.9003 35.532C77.5314 33.9911 77.7746 32.5842 78.2744 31.379C78.7762 30.1687 79.5338 29.1704 80.1738 28.4701C80.4925 28.1214 80.7788 27.8501 80.9841 27.6672C81.0866 27.5758 81.1686 27.5067 81.224 27.4612C81.2517 27.4384 81.2727 27.4216 81.2862 27.4109C81.293 27.4055 81.2979 27.4017 81.3009 27.3994C81.3023 27.3982 81.3033 27.3975 81.3038 27.3971C81.304 27.3969 81.3042 27.3968 81.3041 27.3969C81.3041 27.3969 81.304 27.3969 81.304 27.3969C81.3039 27.397 81.3037 27.3972 81 27C80.6963 26.6028 80.696 26.603 80.6958 26.6032C80.6956 26.6033 80.6953 26.6035 80.6951 26.6037C80.6945 26.6041 80.6939 26.6047 80.6931 26.6053C80.6915 26.6065 80.6895 26.6081 80.6869 26.6101C80.6817 26.6141 80.6746 26.6197 80.6655 26.6269C80.6474 26.6412 80.6217 26.6618 80.5892 26.6885C80.5243 26.7419 80.432 26.8197 80.3187 26.9207C80.0922 27.1225 79.7809 27.4177 79.4356 27.7955C78.7475 28.5484 77.9113 29.6438 77.3506 30.996C76.7879 32.3533 76.4999 33.9776 76.9278 35.7649C77.3555 37.551 78.4859 39.4485 80.6692 41.3749L81 41ZM81 27C80.6847 27.3881 80.6845 27.3879 80.6844 27.3878C80.6844 27.3878 80.6843 27.3877 80.6843 27.3877C80.6842 27.3877 80.6843 27.3878 80.6845 27.3879C80.685 27.3883 80.6859 27.389 80.6872 27.3901C80.69 27.3924 80.6945 27.3962 80.7008 27.4015C80.7135 27.4121 80.7331 27.4289 80.7591 27.4515C80.811 27.4968 80.888 27.5658 80.9843 27.657C81.1771 27.8395 81.4462 28.1104 81.7459 28.4589C82.3475 29.1582 83.0611 30.1569 83.5342 31.3693C84.0057 32.5774 84.2361 33.9905 83.8872 35.5385C83.5384 37.0864 82.6002 38.8144 80.658 40.6352L81 41L81.342 41.3648C83.3998 39.4356 84.4616 37.5386 84.8628 35.7584C85.2639 33.9783 84.9943 32.3601 84.4658 31.0057C83.9389 29.6556 83.1525 28.5606 82.5041 27.8067C82.1788 27.4286 81.8854 27.1331 81.672 26.9309C81.5651 26.8297 81.4781 26.7517 81.4167 26.6981C81.386 26.6714 81.3617 26.6507 81.3446 26.6362C81.336 26.629 81.3292 26.6234 81.3243 26.6193C81.3218 26.6173 81.3199 26.6157 81.3184 26.6144C81.3176 26.6138 81.317 26.6133 81.3165 26.6129C81.3162 26.6127 81.3159 26.6124 81.3158 26.6123C81.3155 26.6121 81.3153 26.6119 81 27ZM80.9918 81.0018L80.9662 81.5011C90.9168 82.0115 96.5918 77.4023 99.4313 72.3717C100.843 69.8702 101.552 67.2701 101.747 65.1555C101.844 64.099 101.814 63.1485 101.671 62.3828C101.533 61.6442 101.27 60.976 100.812 60.6096L100.5 61L100.188 61.3904C100.355 61.524 100.561 61.8871 100.688 62.5666C100.81 63.219 100.842 64.0733 100.751 65.0639C100.569 67.0433 99.9005 69.5063 98.5605 71.8802C95.896 76.6006 90.5669 80.9922 81.0174 80.5024L80.9918 81.0018ZM100.5 61L100.812 60.6096C100.4 60.2798 99.8753 60.1184 99.3206 60.0577C98.7637 59.9968 98.1409 60.0333 97.4944 60.1309C96.2018 60.326 94.7418 60.7772 93.3841 61.2822C92.022 61.7889 90.7419 62.3577 89.8037 62.799C89.3342 63.0199 88.9492 63.2093 88.6811 63.3438C88.547 63.4111 88.4421 63.4646 88.3705 63.5015C88.3346 63.5199 88.3071 63.5342 88.2883 63.5439C88.279 63.5488 88.2718 63.5526 88.2669 63.5551C88.2645 63.5564 88.2626 63.5574 88.2613 63.5581C88.2606 63.5584 88.2601 63.5587 88.2597 63.5589C88.2595 63.559 88.2594 63.5591 88.2593 63.5591C88.2591 63.5592 88.259 63.5592 88.4918 64.0018C88.7246 64.4443 88.7246 64.4443 88.7246 64.4443C88.7246 64.4442 88.7247 64.4442 88.7248 64.4442C88.725 64.444 88.7254 64.4439 88.7259 64.4436C88.7269 64.4431 88.7284 64.4423 88.7305 64.4411C88.7348 64.4389 88.7413 64.4355 88.75 64.431C88.7674 64.4219 88.7936 64.4084 88.828 64.3907C88.8968 64.3553 88.9986 64.3033 89.1294 64.2377C89.3911 64.1064 89.7685 63.9207 90.2294 63.7039C91.1521 63.2699 92.4053 62.7133 93.7327 62.2195C95.0646 61.7241 96.4504 61.2998 97.6437 61.1197C98.2401 61.0296 98.7703 61.0035 99.2119 61.0518C99.6557 61.1004 99.9748 61.2202 100.188 61.3904L100.5 61ZM88.4918 64.0018C88.9739 63.869 88.9738 63.8688 88.9738 63.8686C88.9737 63.8685 88.9737 63.8683 88.9736 63.8681C88.9735 63.8676 88.9733 63.867 88.9731 63.8663C88.9727 63.8647 88.9721 63.8626 88.9713 63.8598C88.9698 63.8542 88.9675 63.8462 88.9645 63.8357C88.9586 63.8148 88.9499 63.7842 88.9384 63.7446C88.9155 63.6654 88.8814 63.5502 88.8366 63.4042C88.747 63.1121 88.6141 62.6961 88.4402 62.1974C88.093 61.2014 87.5799 59.8688 86.9184 58.5322C86.2591 57.2003 85.4403 55.8392 84.4737 54.8038C83.5119 53.7736 82.3441 53.0037 80.9925 53.002L80.9918 53.502L80.9912 54.002C81.9441 54.0032 82.8661 54.5472 83.7427 55.4862C84.6144 56.42 85.3825 57.6836 86.0221 58.9758C86.6594 60.2635 87.1572 61.5548 87.496 62.5266C87.6651 63.0118 87.7941 63.4157 87.8806 63.6975C87.9238 63.8384 87.9564 63.9487 87.978 64.0232C87.9888 64.0605 87.9969 64.0888 88.0022 64.1076C88.0049 64.117 88.0068 64.124 88.0081 64.1285C88.0087 64.1308 88.0092 64.1324 88.0095 64.1334C88.0096 64.1339 88.0097 64.1343 88.0098 64.1345C88.0098 64.1346 88.0098 64.1346 88.0098 64.1346C88.0098 64.1346 88.0098 64.1345 88.4918 64.0018ZM80.9918 53.502L80.9925 53.002C79.7366 53.0004 78.731 53.8979 77.9564 55.0111C77.168 56.1442 76.5252 57.6317 76.0196 59.0858C75.5117 60.5462 75.1321 62.0026 74.8797 63.0915C74.7534 63.6366 74.6585 64.0912 74.5952 64.4102C74.5635 64.5697 74.5396 64.6954 74.5236 64.7816C74.5156 64.8247 74.5096 64.8579 74.5055 64.8806C74.5035 64.892 74.502 64.9007 74.5009 64.9067C74.5004 64.9097 74.5 64.912 74.4997 64.9136C74.4995 64.9144 74.4994 64.915 74.4994 64.9155C74.4993 64.9157 74.4993 64.9159 74.4993 64.916C74.4992 64.9162 74.4992 64.9163 74.9918 65.002C75.4844 65.0876 75.4844 65.0876 75.4844 65.0876C75.4844 65.0876 75.4844 65.0875 75.4845 65.0874C75.4845 65.0872 75.4846 65.0867 75.4847 65.0861C75.4849 65.085 75.4852 65.0831 75.4857 65.0806C75.4866 65.0755 75.4879 65.0677 75.4898 65.0573C75.4936 65.0364 75.4992 65.0051 75.5069 64.9639C75.5221 64.8816 75.5452 64.7601 75.576 64.605C75.6376 64.2948 75.7303 63.8507 75.8539 63.3173C76.1015 62.2491 76.4719 60.8296 76.9641 59.4143C77.4584 57.9928 78.0656 56.605 78.7772 55.5823C79.5027 54.5397 80.247 54.001 80.9912 54.002L80.9918 53.502ZM74.9918 65.002C75.2419 64.569 75.2417 64.5689 75.2416 64.5688C75.2415 64.5687 75.2413 64.5686 75.241 64.5685C75.2406 64.5682 75.2399 64.5678 75.239 64.5673C75.2373 64.5663 75.2348 64.5649 75.2315 64.563C75.225 64.5592 75.2153 64.5537 75.2027 64.5465C75.1774 64.5321 75.1402 64.5109 75.0919 64.4835C74.9951 64.4287 74.8536 64.3493 74.6734 64.2498C74.313 64.0507 73.7978 63.7712 73.1765 63.4486C71.9355 62.804 70.2651 61.9838 68.5586 61.2882C66.8623 60.5968 65.0895 60.0113 63.656 59.8631C62.9418 59.7892 62.2591 59.8177 61.6997 60.038C61.1112 60.2696 60.6757 60.7097 60.507 61.3796L60.9918 61.5018L61.4767 61.6239C61.56 61.2933 61.751 61.0925 62.066 60.9685C62.41 60.833 62.9077 60.791 63.5532 60.8578C64.8392 60.9907 66.5034 61.5304 68.1811 62.2142C69.8486 62.8939 71.4892 63.6991 72.7156 64.336C73.3281 64.6541 73.8358 64.9295 74.1898 65.1251C74.3669 65.2229 74.5054 65.3007 74.5995 65.3539C74.6465 65.3805 74.6824 65.4009 74.7063 65.4146C74.7183 65.4215 74.7273 65.4266 74.7333 65.4301C74.7363 65.4318 74.7385 65.433 74.7399 65.4338C74.7406 65.4343 74.7411 65.4346 74.7414 65.4347C74.7416 65.4348 74.7417 65.4349 74.7418 65.4349C74.7418 65.435 74.7418 65.435 74.9918 65.002ZM60.9918 61.5018L60.507 61.3796C60.3578 61.9717 60.3662 62.745 60.4928 63.6102C60.6208 64.4849 60.8754 65.4919 61.2505 66.5699C62.0007 68.7258 63.2433 71.1964 64.963 73.5014C68.3994 78.107 73.8009 82.1199 81.0345 81.4999L80.9918 81.0018L80.9491 80.5036C74.1827 81.0835 69.0802 77.3472 65.7645 72.9034C64.1083 70.6835 62.9128 68.3043 62.195 66.2413C61.8361 65.2099 61.5993 64.2652 61.4823 63.4654C61.3639 62.6561 61.3738 62.0323 61.4767 61.6239L60.9918 61.5018ZM81 81V81.5C81.8213 81.5 82.4766 81.0662 82.9684 80.4582C83.4551 79.8564 83.8133 79.0502 84.067 78.1917C84.5742 76.4751 84.7055 74.4027 84.495 72.9293L84 73L83.505 73.0707C83.6945 74.3973 83.5758 76.3249 83.108 77.9083C82.8741 78.6998 82.5636 79.3686 82.1909 79.8293C81.8233 80.2838 81.4286 80.5 81 80.5V81ZM81 81V80.5C80.0822 80.5 79.3276 79.7766 78.8494 78.3419C78.3794 76.9321 78.2525 75.0113 78.4961 73.062L78 73L77.5039 72.938C77.2475 74.9887 77.3706 77.0679 77.9007 78.6581C78.4225 80.2234 79.4179 81.5 81 81.5V81ZM62.3027 101.062L61.9904 101.453C62.4026 101.783 62.9274 101.944 63.4821 102.005C64.039 102.066 64.6618 102.029 65.3083 101.932C66.601 101.736 68.0609 101.285 69.4186 100.78C70.7807 100.274 72.0609 99.7048 72.999 99.2635C73.4686 99.0426 73.8536 98.8531 74.1217 98.7187C74.2557 98.6514 74.3606 98.5979 74.4323 98.561C74.4681 98.5426 74.4957 98.5283 74.5144 98.5186C74.5238 98.5137 74.5309 98.5099 74.5358 98.5074C74.5383 98.5061 74.5402 98.5051 74.5415 98.5044C74.5421 98.5041 74.5427 98.5038 74.543 98.5036C74.5432 98.5035 74.5434 98.5034 74.5435 98.5034C74.5436 98.5033 74.5437 98.5032 74.3109 98.0607C74.0781 97.6182 74.0782 97.6182 74.0781 97.6182C74.0781 97.6183 74.078 97.6183 74.0779 97.6183C74.0777 97.6184 74.0774 97.6186 74.0769 97.6189C74.0759 97.6194 74.0743 97.6202 74.0722 97.6213C74.0679 97.6236 74.0614 97.627 74.0527 97.6315C74.0353 97.6405 74.0092 97.6541 73.9748 97.6718C73.9059 97.7072 73.8041 97.7592 73.6733 97.8248C73.4116 97.9561 73.0343 98.1418 72.5734 98.3586C71.6506 98.7926 70.3975 99.3492 69.07 99.843C67.7382 100.338 66.3523 100.763 65.1591 100.943C64.5626 101.033 64.0324 101.059 63.5909 101.011C63.1471 100.962 62.8279 100.842 62.6151 100.672L62.3027 101.062ZM74.3109 98.0607C73.8289 98.1935 73.8289 98.1937 73.829 98.1938C73.829 98.194 73.829 98.1942 73.8291 98.1944C73.8292 98.1948 73.8294 98.1954 73.8296 98.1962C73.83 98.1977 73.8306 98.1999 73.8314 98.2027C73.833 98.2083 73.8352 98.2163 73.8382 98.2268C73.8441 98.2477 73.8528 98.2783 73.8643 98.3179C73.8873 98.3971 73.9213 98.5123 73.9661 98.6583C74.0558 98.9504 74.1886 99.3664 74.3625 99.8651C74.7098 100.861 75.2228 102.194 75.8844 103.53C76.5436 104.862 77.3625 106.223 78.3291 107.259C79.2908 108.289 80.4586 109.059 81.8103 109.061L81.8109 108.561L81.8115 108.061C80.8587 108.059 79.9367 107.515 79.0601 106.576C78.1883 105.642 77.4202 104.379 76.7806 103.087C76.1433 101.799 75.6456 100.508 75.3068 99.5359C75.1376 99.0507 75.0086 98.6468 74.9221 98.365C74.8789 98.2241 74.8463 98.1138 74.8247 98.0393C74.8139 98.002 74.8058 97.9737 74.8005 97.9549C74.7979 97.9455 74.7959 97.9385 74.7946 97.934C74.794 97.9317 74.7935 97.9301 74.7933 97.9291C74.7931 97.9286 74.793 97.9282 74.793 97.928C74.793 97.9279 74.7929 97.9279 74.7929 97.9279C74.7929 97.9279 74.793 97.9279 74.3109 98.0607ZM81.8109 108.561L81.8103 109.061C83.0661 109.062 84.0717 108.165 84.8463 107.051C85.6347 105.918 86.2775 104.431 86.7832 102.977C87.291 101.516 87.6706 100.06 87.923 98.971C88.0494 98.4259 88.1442 97.9713 88.2076 97.6523C88.2393 97.4928 88.2631 97.3671 88.2791 97.2809C88.2871 97.2378 88.2931 97.2046 88.2972 97.1819C88.2992 97.1705 88.3008 97.1618 88.3018 97.1558C88.3024 97.1528 88.3028 97.1505 88.303 97.1489C88.3032 97.1481 88.3033 97.1475 88.3034 97.147C88.3034 97.1468 88.3035 97.1466 88.3035 97.1465C88.3035 97.1463 88.3035 97.1462 87.8109 97.0605C87.3183 96.9749 87.3183 96.9749 87.3183 96.9749C87.3183 96.9749 87.3183 96.975 87.3183 96.9751C87.3182 96.9753 87.3182 96.9758 87.318 96.9764C87.3178 96.9775 87.3175 96.9794 87.3171 96.9819C87.3162 96.987 87.3148 96.9948 87.3129 97.0052C87.3092 97.0261 87.3035 97.0574 87.2959 97.0986C87.2806 97.1809 87.2576 97.3024 87.2267 97.4575C87.1651 97.7677 87.0725 98.2118 86.9488 98.7452C86.7012 99.8134 86.3308 101.233 85.8387 102.648C85.3443 104.07 84.7371 105.457 84.0255 106.48C83.3001 107.523 82.5557 108.061 81.8115 108.061L81.8109 108.561ZM87.8109 97.0605C87.5609 97.4935 87.561 97.4936 87.5611 97.4937C87.5613 97.4938 87.5615 97.4939 87.5617 97.494C87.5622 97.4943 87.5628 97.4947 87.5637 97.4952C87.5654 97.4962 87.5679 97.4976 87.5712 97.4995C87.5778 97.5033 87.5874 97.5088 87.6 97.516C87.6253 97.5304 87.6625 97.5516 87.7109 97.579C87.8076 97.6338 87.9492 97.7132 88.1294 97.8128C88.4897 98.0118 89.0049 98.2913 89.6262 98.6139C90.8673 99.2585 92.5376 100.079 94.2441 100.774C95.9404 101.466 97.7132 102.051 99.1467 102.199C99.8609 102.273 100.544 102.245 101.103 102.025C101.692 101.793 102.127 101.353 102.296 100.683L101.811 100.561L101.326 100.439C101.243 100.769 101.052 100.97 100.737 101.094C100.393 101.229 99.8951 101.271 99.2495 101.205C97.9635 101.072 96.2993 100.532 94.6216 99.8483C92.9541 99.1686 91.3135 98.3634 90.0871 97.7265C89.4746 97.4084 88.967 97.133 88.6129 96.9374C88.4359 96.8396 88.2973 96.7618 88.2033 96.7086C88.1562 96.682 88.1204 96.6616 88.0964 96.6479C88.0844 96.641 88.0754 96.6359 88.0695 96.6324C88.0665 96.6307 88.0643 96.6295 88.0629 96.6287C88.0621 96.6282 88.0616 96.6279 88.0613 96.6278C88.0611 96.6277 88.0611 96.6276 88.061 96.6276C88.0609 96.6275 88.0609 96.6275 87.8109 97.0605ZM101.811 100.561L102.296 100.683C102.445 100.091 102.437 99.3175 102.31 98.4523C102.182 97.5776 101.927 96.5706 101.552 95.4926C100.802 93.3367 99.5594 90.8661 97.8397 88.5611C94.4034 83.9555 89.0018 79.9426 81.7682 80.5626L81.8109 81.0607L81.8536 81.5589C88.62 80.979 93.7225 84.7153 97.0382 89.1591C98.6945 91.379 99.8899 93.7582 100.608 95.8212C100.967 96.8526 101.203 97.7973 101.32 98.5971C101.439 99.4064 101.429 100.03 101.326 100.439L101.811 100.561ZM81.8109 81.0607L81.8365 80.5614C81.5583 80.5471 81.2834 80.5369 81.0117 80.5305L81 81.0303L80.9883 81.5302C81.2506 81.5364 81.5162 81.5463 81.7853 81.5601L81.8109 81.0607ZM81 81.0303L81.0117 80.5305C71.4307 80.3058 65.974 84.9349 63.254 89.9018C61.9009 92.3729 61.2258 94.924 61.0482 96.996C60.9595 98.0312 60.9936 98.9618 61.1381 99.7121C61.2774 100.436 61.5383 101.091 61.9904 101.453L62.3027 101.062L62.6151 100.672C62.4509 100.541 62.2477 100.186 62.12 99.523C61.9974 98.8858 61.9614 98.0511 62.0446 97.0814C62.2106 95.1438 62.8467 92.7277 64.1311 90.3822C66.6864 85.716 71.8108 81.315 80.9883 81.5302L81 81.0303ZM81.8109 81.0607L81.8296 80.5611L81.0187 80.5307L81 81.0303L80.9813 81.53L81.7922 81.5604L81.8109 81.0607ZM81 81L80.7764 81.4472C81.4666 81.7923 82.2104 82.1144 82.7698 82.9628C83.3287 83.8102 83.7461 85.2636 83.5014 87.9547L83.9993 88L84.4973 88.0453C84.7527 85.2364 84.3371 83.5231 83.6046 82.4122C82.8727 81.3023 81.8667 80.8743 81.2236 80.5528L81 81ZM81 81L80.938 80.5039C79.2109 80.7197 77.0925 82.7246 77.5012 88.0383L77.9997 88L78.4983 87.9617C78.107 82.8754 80.1224 81.6136 81.062 81.4961L81 81ZM0.5 152.5H0V162.5H0.5H1V152.5H0.5ZM0.5 162.5V163H10V162.5V162H0.5V162.5ZM10 162.5H10.5V152.5H10H9.5V162.5H10ZM10 152.5V152H0.5V152.5V153H10V152.5ZM152.5 152.5H152V162.5H152.5H153V152.5H152.5ZM152.5 162.5V163H162V162.5V162H152.5V162.5ZM162 162.5H162.5V152.5H162H161.5V162.5H162ZM162 152.5V152H152.5V152.5V153H162V152.5ZM152.5 1H152V11H152.5H153V1H152.5ZM152.5 11V11.5H162V11V10.5H152.5V11ZM162 11H162.5V1H162H161.5V11H162ZM162 1V0.5H152.5V1V1.5H162V1ZM0.5 1H0V11H0.5H1V1H0.5ZM0.5 11V11.5H10V11V10.5H0.5V11ZM10 11H10.5V1H10H9.5V11H10ZM10 1V0.5H0.5V1V1.5H10V1Z" />
</svg>
