<svg width="811" height="163" viewBox="0 0 811 163" fill="none" xmlns="http://www.w3.org/2000/svg">
<style>
  path {
    stroke-width: 1px !important;
    stroke: var(--Yellow-yellow-700, #B4B2AC) !important;
    fill: none !important;
  }
</style>

<path d="M238 1H218.5V20M238 1V20H218.5M238 1H359M218.5 20V142M218.5 142V162.5H238M218.5 142H238V162.5M238 162.5H359M359 162.5H379V142M359 162.5V142H379M379 142V20M379 20V1H359M379 20H359V1M275 81.25H298.5M275 81.25C272 81.25 271.778 77 271.778 77L272 54.5L294.5 54.7312C294.5 54.7312 298.5 54.5 298.5 57.5M275 81.25C272 81.25 272.201 85.5 272.201 85.5L272 108L294.5 107.769C294.5 107.769 298.5 108 298.5 105M298.5 81.25H322M298.5 81.25V57.5M298.5 81.25V105M322 81.25C325.01 81.25 325.01 85.5 325.01 85.5L325 108L302.5 107.769C302.5 107.769 298.5 108 298.5 105M322 81.25C325.01 81.25 325.01 77 325.01 77L325 54.5L302.5 54.7312C302.5 54.7312 298.5 54.7312 298.5 57.5M57 62H74.5V74.5H47V48.5H81.5V74.5H115V48.5H88V62H105.5M57 102.5H74.5V115H47V89H81.5V115H115V89H88V102.5H105.5M0.5 34V1.5H34.5M0.5 34H21M0.5 34V67.5M21 34V22H34.5M21 34V67.5M0.5 67.5H21M0.5 67.5V95M21 67.5V95M0.5 95H21M0.5 95V128.5M21 95V128.5M0.5 128.5V162H34.5M0.5 128.5H21M21 128.5V142H34.5M34.5 142V162M34.5 142H67.5M34.5 162H67.5M67.5 142V162M67.5 142H95.5M67.5 162H95.5M95.5 142V162M95.5 142H128M95.5 162H128M128 142H142V128.5M128 142V162M128 162H162V128.5M142 128.5H162M142 128.5V95M162 128.5V95M142 95H162M142 95V67.5M162 95V67.5M142 67.5H162M142 67.5V34M162 67.5V34M142 34V22H128M142 34H162M162 34V1.5H128M128 22V1.5M128 22H95.5M128 1.5H95.5M95.5 22V1.5M95.5 22H67.5M95.5 1.5H67.5M67.5 22V1.5M67.5 22H34.5M67.5 1.5H34.5M34.5 22V1.5M514.25 162.5V108.5M514.25 162.5H500.5M514.25 162.5H528.5M514.25 108.5H528V122.5M514.25 108.5H500.5V122.5M446.739 135.5L446.711 148.5H474V135.5H487.25M446.739 135.5H460V122.5H474V108.5M446.739 135.5L446.87 82M474 108.5H488V122.5H500.5M474 108.5H460V95.5H568.5V108.5H554.5M500.5 122.5V135.5H487.25M528 122.5V135.5H541.5M528 122.5H541.5V108.5H554.5M554.5 108.5V122.5H568.5V135.5H581.5M581.5 135.5V148.5H554.5V135.5H541.5M581.5 135.5V82M487.25 135.5V148.5H500.5V162.5M500.5 162.5H433.5V1H500M528.5 162.5H595V1H528M528.5 162.5V148.5H541.5V135.5M446.87 82H581.5M446.87 82L446.973 27.5M581.5 82V27.5M500 41.5V54H514M500 41.5V27.5H487M500 41.5H487V54H473.5M528 41.5V27H541.25M528 41.5V54H514M528 41.5H541.5V54H554.5M514 54V1M514 1H528M514 1H500M581.5 27.5V13.5H554.5V27H541.25M581.5 27.5H568.5V41.5H554.5V54M554.5 54H568.5V67H460V54H473.5M446.973 27.5L447 13H473.5V27.5H487M446.973 27.5H460V41.5H473.5V54M541.25 27V13.5H528V1M500 1V13H487V27.5M669.5 21L715.75 67.25M669.5 21H683M669.5 21V35M715.75 67.25L729.75 81.25M715.75 67.25L701.923 81.0766M715.75 67.25L729.25 53.75M729.75 81.25L743.75 95.25M729.75 81.25L715.999 95.0013M729.75 81.25L743.25 67.75M743.75 95.25L790 141.5M743.75 95.25L730.074 108.926M743.75 95.25L757.25 81.75M790 141.5V128.5M790 141.5H776.5M669.5 141.5L715.999 95.0013M669.5 141.5H683M669.5 141.5V127.5M715.999 95.0013L701.923 81.0766M715.999 95.0013L730.074 108.926M743.25 67.75L790 21M743.25 67.75L729.25 53.75M743.25 67.75L757.25 81.75M790 21H777M790 21V35M669.5 49L701.923 81.0766M669.5 49V68M669.5 49V35M701.923 81.0766L669.5 113.5M730.074 108.926L763 141.5M730.074 108.926L698 141M763 141.5H743.5M763 141.5H776.5M696.5 21L729.25 53.75M696.5 21H683M696.5 21H716.5M729.25 53.75L762 21M757.25 81.75L790 114.5M757.25 81.75L790 49M790 114.5V128.5M790 114.5V95M669.5 113.5V127.5M669.5 113.5V95M762 21H743.5M762 21H777M790 49V35M790 49V68M683 21V0.5M683 0.5H649.5V35M683 0.5H716.5M716.5 21V0.5M716.5 21H743.5M716.5 0.5H743.5M743.5 21V0.5M743.5 0.5H777M777 21V0.5M777 0.5H810.5V35M790 35H810.5M810.5 35V68M790 68H810.5M790 68V95M810.5 68V95M790 95H810.5M810.5 95V128.5M790 128.5H810.5M810.5 128.5V162H776.5M743.5 141.5V162M743.5 141.5H716.5M743.5 162H716.5M743.5 162H776.5M716.5 141.5V162M716.5 141.5H683M716.5 162H683M683 141.5V162M683 162H649.5V127.5M669.5 127.5H649.5M649.5 127.5V95M669.5 95H649.5M669.5 95V68M649.5 95V68M669.5 68H649.5M649.5 68V35M669.5 35H649.5M776.5 141.5V162M251.634 13.5L251.5 34H231.5V128H251.5V148.5H345.5V128H366V34H345.5L345.634 13.5H251.634ZM257.326 41L257.636 76.0812C257.636 76.0812 261.379 82 266 82C261.379 82 257.636 89.0935 257.636 89.0935L257.326 122L291.985 121.641C291.985 121.641 298.5 119.154 298.5 114.5C298.5 119.154 304.309 121.641 304.309 121.641L338.968 122L338.984 89.0935C338.984 89.0935 337.137 81.25 332.5 81.25C337.137 81.25 338.984 75.9065 338.984 75.9065L338.968 41L304.309 41.3587C304.309 41.3587 298.5 43.7045 298.5 48C298.5 43.3458 291.985 41.3587 291.985 41.3587L257.326 41ZM34.5 34V128.5H128V34H34.5Z" />
</svg>
