<svg width="1818" height="518" viewBox="0 0 1818 518" fill="none" xmlns="http://www.w3.org/2000/svg">
<path d="M285.942 74.8095C290.587 84.9764 277.724 103.462 272.365 105.772C264.993 111.094 254.654 118.855 240.209 121.947C221.987 127.493 200.55 121.295 179.113 109.469C154.817 96.0675 133.737 85.9007 118.374 83.1278C101.224 81.7416 93.3634 85.9007 78 85.9007M285.942 74.8095C283.083 71.5746 279.36 70.2643 281.297 62.332C282.764 56.3241 289.753 55.862 295.946 56.3242M285.942 74.8095C285.942 74.8095 292.582 77.4055 296.66 77.1202C301.598 76.7747 305.401 75.5708 309.166 72.9609C312.93 70.351 315.253 68.6709 317.74 64.1804C319.523 60.963 320.317 60.2425 319.884 56.3242C319.17 49.8544 314.861 46.0245 309.88 42.9224C300.233 36.9148 295.485 36.4408 285.942 36.9147C281.622 37.1292 278.478 37.6737 275.58 38.7494M78 85.9007C78 85.9007 90.6796 84.7124 98.7227 83.1278C106.46 81.6036 115.544 78.8394 118.374 78.5067C126.948 77.4984 139.454 79.431 139.454 79.431C139.454 79.431 155.174 81.7415 166.965 86.3629C176.397 90.0601 189.831 98.3784 189.831 98.3784C189.831 98.3784 198.942 103.994 205.195 105.773C212.293 107.791 218.057 108.083 223.774 107.159C229.848 106.177 236.279 104.773 242.353 101.613C247.395 98.9902 251.47 96.5299 254.143 93.2949C257.675 89.0198 260.574 86.363 260.574 79.8931C260.574 73.4365 257.597 66.9534 254.858 64.6427L252.357 61.8699M78 85.9007C90.1478 84.0522 109.17 79.9828 118.731 75.2718C126.234 71.5747 136.246 69.8543 147.671 69.7262C156.362 69.6287 161.491 70.0761 169.823 72.499C174.817 73.9513 179.47 75.2718 182.685 77.1203C185.901 78.9688 191.087 81.6464 196.62 84.5144C199.987 86.26 201.703 87.8641 205.195 89.1357C208.728 90.4223 214.484 90.9843 214.484 90.9843M252.357 61.8699L256.644 54.0137C256.644 54.0137 260.659 48.0609 265.934 44.3089C269.635 41.6755 272.466 39.9056 275.58 38.7494M252.357 61.8699C250.57 59.7133 245.73 57.6275 241.281 56.3243C239.347 55.7579 237.02 55.5429 234.842 55.4985M214.484 90.9843C211.179 90.2456 208.768 89.5979 206.266 87.7493C202.047 84.6308 201.264 82.2038 200.907 76.196C200.631 71.5523 204.123 66.4912 206.981 64.1806L207.141 64.0514C210.459 61.3688 212.696 59.56 216.628 57.7107C217.66 57.2254 218.913 56.8675 220.201 56.6036M214.484 90.9843C219.021 91.9982 221.767 92.1988 226.275 90.9843C229.169 90.2045 230.918 89.919 233.063 87.2872C234.965 84.9537 235.406 84.5479 235.564 82.2038C235.723 79.8569 235.062 78.1655 233.778 76.6315C232.059 74.5792 228.256 74.3686 225.917 74.3475C223.092 74.322 220.201 77.5824 220.201 77.5824M275.58 38.7494C274.032 34.2867 267.363 25.8236 256.644 20.7401C251.3 18.2056 249.973 18.0573 245.568 17.1849C238.258 15.7373 233.42 15.4781 226.632 17.1849C219.843 18.8917 218.772 18.4295 211.269 23.5129C206.812 26.5322 204.48 30.907 204.123 37.3769C203.765 43.8467 207.696 49.3923 212.698 52.6273C215.208 54.2508 220.201 56.6036 220.201 56.6036M220.201 56.6036C223.818 55.8622 227.704 55.8622 227.704 55.8622C227.704 55.8622 230.714 55.4645 234.269 55.4905M234.842 55.4985C234.65 55.4945 234.458 55.4919 234.269 55.4905M234.842 55.4985C234.641 55.5181 234.448 55.5158 234.269 55.4905M234.842 55.4985C236.862 55.3022 239.835 52.9125 240.923 49.3923C241.638 47.0817 241.46 45.1131 239.852 42.4604C237.725 38.9533 234.401 37.3676 230.919 36.9148C228.971 36.6613 225.917 36.9147 225.917 36.9147M1550.06 210.809C1545.41 220.976 1558.28 239.462 1563.64 241.772C1571.01 247.094 1581.35 254.855 1595.79 257.947C1614.01 263.493 1635.45 257.295 1656.89 245.469C1681.18 232.068 1702.26 221.901 1717.63 219.128C1734.78 217.742 1742.64 221.901 1758 221.901M1550.06 210.809C1552.92 207.575 1556.64 206.264 1554.7 198.332C1553.24 192.324 1546.25 191.862 1540.05 192.324M1550.06 210.809C1550.06 210.809 1543.42 213.406 1539.34 213.12C1534.4 212.775 1530.6 211.571 1526.83 208.961C1523.07 206.351 1520.75 204.671 1518.26 200.18C1516.48 196.963 1515.68 196.242 1516.12 192.324C1516.83 185.854 1521.14 182.025 1526.12 178.922C1535.77 172.915 1540.51 172.441 1550.06 172.915C1554.38 173.129 1557.52 173.674 1560.42 174.749M1758 221.901C1758 221.901 1745.32 220.712 1737.28 219.128C1729.54 217.604 1720.46 214.839 1717.63 214.507C1709.05 213.498 1696.55 215.431 1696.55 215.431C1696.55 215.431 1680.83 217.741 1669.04 222.363C1659.6 226.06 1646.17 234.378 1646.17 234.378C1646.17 234.378 1637.06 239.994 1630.81 241.773C1623.71 243.791 1617.94 244.083 1612.23 243.159C1606.15 242.177 1599.72 240.773 1593.65 237.613C1588.61 234.99 1584.53 232.53 1581.86 229.295C1578.32 225.02 1575.43 222.363 1575.43 215.893C1575.43 209.436 1578.4 202.953 1581.14 200.643L1583.64 197.87M1758 221.901C1745.85 220.052 1726.83 215.983 1717.27 211.272C1709.77 207.575 1699.75 205.854 1688.33 205.726C1679.64 205.629 1674.51 206.076 1666.18 208.499C1661.18 209.951 1656.53 211.272 1653.31 213.12C1650.1 214.969 1644.91 217.646 1639.38 220.514C1636.01 222.26 1634.3 223.864 1630.81 225.136C1627.27 226.422 1621.52 226.984 1621.52 226.984M1583.64 197.87L1579.36 190.014C1579.36 190.014 1575.34 184.061 1570.07 180.309C1566.36 177.675 1563.53 175.906 1560.42 174.749M1583.64 197.87C1585.43 195.713 1590.27 193.627 1594.72 192.324C1596.65 191.758 1598.98 191.543 1601.16 191.498M1621.52 226.984C1624.82 226.246 1627.23 225.598 1629.73 223.749C1633.95 220.631 1634.74 218.204 1635.09 212.196C1635.37 207.552 1631.88 202.491 1629.02 200.181L1628.86 200.051C1625.54 197.369 1623.3 195.56 1619.37 193.711C1618.34 193.225 1617.09 192.868 1615.8 192.604M1621.52 226.984C1616.98 227.998 1614.23 228.199 1609.73 226.984C1606.83 226.204 1605.08 225.919 1602.94 223.287C1601.03 220.954 1600.59 220.548 1600.44 218.204C1600.28 215.857 1600.94 214.165 1602.22 212.631C1603.94 210.579 1607.74 210.369 1610.08 210.347C1612.91 210.322 1615.8 213.582 1615.8 213.582M1560.42 174.749C1561.97 170.287 1568.64 161.824 1579.36 156.74C1584.7 154.206 1586.03 154.057 1590.43 153.185C1597.74 151.737 1602.58 151.478 1609.37 153.185C1616.16 154.892 1617.23 154.429 1624.73 159.513C1629.19 162.532 1631.52 166.907 1631.88 173.377C1632.23 179.847 1628.3 185.392 1623.3 188.627C1620.79 190.251 1615.8 192.604 1615.8 192.604M1615.8 192.604C1612.18 191.862 1608.3 191.862 1608.3 191.862C1608.3 191.862 1605.29 191.465 1601.73 191.491M1601.16 191.498C1601.35 191.495 1601.54 191.492 1601.73 191.491M1601.16 191.498C1601.36 191.518 1601.55 191.516 1601.73 191.491M1601.16 191.498C1599.14 191.302 1596.17 188.913 1595.08 185.392C1594.36 183.082 1594.54 181.113 1596.15 178.46C1598.28 174.953 1601.6 173.368 1605.08 172.915C1607.03 172.661 1610.08 172.915 1610.08 172.915M592.058 94.8095C587.413 104.976 600.276 123.462 605.635 125.772C613.007 131.094 623.346 138.855 637.791 141.947C656.013 147.493 677.45 141.295 698.887 129.469C723.183 116.068 744.263 105.901 759.626 103.128C776.776 101.742 784.637 105.901 800 105.901M592.058 94.8095C594.917 91.5746 598.64 90.2643 596.703 82.332C595.236 76.3241 588.247 75.862 582.054 76.3242M592.058 94.8095C592.058 94.8095 585.418 97.4055 581.34 97.1202C576.402 96.7747 572.599 95.5707 568.834 92.9609C565.07 90.351 562.747 88.6709 560.26 84.1804C558.477 80.963 557.683 80.2425 558.116 76.3242C558.83 69.8544 563.139 66.0245 568.12 62.9224C577.767 56.9148 582.515 56.4408 592.058 56.9147C596.378 57.1292 599.522 57.6737 602.42 58.7494M800 105.901C800 105.901 787.32 104.712 779.277 103.128C771.54 101.604 762.456 98.8394 759.626 98.5067C751.051 97.4984 738.546 99.431 738.546 99.431C738.546 99.431 722.826 101.741 711.035 106.363C701.603 110.06 688.169 118.378 688.169 118.378C688.169 118.378 679.058 123.994 672.805 125.773C665.707 127.791 659.943 128.083 654.226 127.159C648.152 126.177 641.721 124.773 635.647 121.613C630.605 118.99 626.53 116.53 623.857 113.295C620.325 109.02 617.426 106.363 617.426 99.8931C617.426 93.4365 620.403 86.9534 623.142 84.6427L625.643 81.8699M800 105.901C787.852 104.052 768.83 99.9828 759.269 95.2718C751.766 91.5747 741.754 89.8543 730.329 89.7262C721.638 89.6287 716.509 90.0761 708.177 92.499C703.183 93.9513 698.53 95.2718 695.315 97.1203C692.099 98.9688 686.913 101.646 681.38 104.514C678.013 106.26 676.297 107.864 672.805 109.136C669.272 110.422 663.516 110.984 663.516 110.984M625.643 81.8699L621.356 74.0137C621.356 74.0137 617.341 68.0609 612.066 64.3089C608.365 61.6755 605.534 59.9056 602.42 58.7494M625.643 81.8699C627.43 79.7133 632.27 77.6275 636.719 76.3243C638.653 75.7579 640.98 75.5429 643.158 75.4985M663.516 110.984C666.821 110.246 669.232 109.598 671.734 107.749C675.953 104.631 676.736 102.204 677.093 96.196C677.369 91.5523 673.877 86.4912 671.019 84.1806L670.859 84.0515C667.541 81.3688 665.304 79.56 661.372 77.7107C660.34 77.2254 659.087 76.8675 657.799 76.6036M663.516 110.984C658.979 111.998 656.233 112.199 651.725 110.984C648.831 110.204 647.082 109.919 644.937 107.287C643.035 104.954 642.594 104.548 642.436 102.204C642.277 99.8569 642.938 98.1655 644.222 96.6315C645.941 94.5792 649.744 94.3686 652.083 94.3475C654.908 94.322 657.799 97.5824 657.799 97.5824M602.42 58.7494C603.968 54.2867 610.637 45.8236 621.356 40.7401C626.7 38.2056 628.026 38.0573 632.432 37.1849C639.742 35.7373 644.58 35.4781 651.368 37.1849C658.157 38.8917 659.228 38.4295 666.731 43.5129C671.188 46.5322 673.52 50.907 673.877 57.3769C674.235 63.8467 670.304 69.3923 665.302 72.6273C662.792 74.2508 657.799 76.6036 657.799 76.6036M657.799 76.6036C654.182 75.8622 650.296 75.8622 650.296 75.8622C650.296 75.8622 647.286 75.4645 643.731 75.4905M643.158 75.4985C643.35 75.4945 643.542 75.4919 643.731 75.4905M643.158 75.4985C643.359 75.5181 643.552 75.5158 643.731 75.4905M643.158 75.4985C641.138 75.3022 638.165 72.9125 637.077 69.3923C636.362 67.0817 636.54 65.1131 638.148 62.4604C640.275 58.9533 643.599 57.3676 647.081 56.9148C649.029 56.6613 652.083 56.9147 652.083 56.9147M1668.94 295.751C1665.81 302.623 1674.48 315.118 1678.08 316.679C1683.05 320.277 1690.01 325.522 1699.74 327.612C1712.02 331.361 1726.46 327.171 1740.9 319.178C1757.26 310.12 1771.46 303.248 1781.81 301.373C1793.36 300.436 1798.65 303.248 1809 303.248M1668.94 295.751C1670.87 293.564 1673.37 292.679 1672.07 287.317C1671.08 283.256 1666.37 282.944 1662.2 283.256M1668.94 295.751C1668.94 295.751 1664.47 297.506 1661.72 297.313C1658.39 297.079 1655.83 296.265 1653.3 294.501C1650.76 292.737 1649.2 291.602 1647.52 288.566C1646.32 286.392 1645.79 285.905 1646.08 283.256C1646.56 278.883 1649.46 276.294 1652.82 274.198C1659.31 270.137 1662.51 269.816 1668.94 270.137C1671.85 270.282 1673.97 270.65 1675.92 271.377M1809 303.248C1809 303.248 1800.46 302.444 1795.04 301.373C1789.83 300.343 1783.71 298.475 1781.81 298.25C1776.03 297.568 1767.61 298.875 1767.61 298.875C1767.61 298.875 1757.02 300.436 1749.08 303.56C1742.72 306.059 1733.68 311.682 1733.68 311.682C1733.68 311.682 1727.54 315.478 1723.33 316.68C1718.55 318.044 1714.66 318.241 1710.81 317.617C1706.72 316.953 1702.39 316.004 1698.3 313.868C1694.9 312.095 1692.16 310.432 1690.36 308.246C1687.98 305.356 1686.03 303.56 1686.03 299.187C1686.03 294.823 1688.03 290.441 1689.88 288.879L1691.56 287.005M1809 303.248C1800.82 301.998 1788.01 299.248 1781.57 296.063C1776.51 293.564 1769.77 292.402 1762.07 292.315C1756.22 292.249 1752.76 292.551 1747.15 294.189C1743.79 295.171 1740.65 296.063 1738.49 297.313C1736.32 298.562 1732.83 300.372 1729.1 302.311C1726.84 303.491 1725.68 304.575 1723.33 305.434C1720.95 306.304 1717.07 306.684 1717.07 306.684M1691.56 287.005L1688.67 281.694C1688.67 281.694 1685.97 277.671 1682.42 275.135C1679.92 273.355 1678.02 272.158 1675.92 271.377M1691.56 287.005C1692.76 285.547 1696.02 284.137 1699.02 283.256C1700.32 282.873 1701.89 282.728 1703.36 282.698M1717.07 306.684C1719.3 306.184 1720.92 305.747 1722.61 304.497C1725.45 302.389 1725.97 300.749 1726.22 296.688C1726.4 293.549 1724.05 290.128 1722.12 288.566L1722.02 288.479C1719.78 286.666 1718.28 285.443 1715.63 284.193C1714.93 283.865 1714.09 283.623 1713.22 283.445M1717.07 306.684C1714.01 307.369 1712.17 307.505 1709.13 306.684C1707.18 306.157 1706 305.964 1704.56 304.185C1703.28 302.608 1702.98 302.333 1702.87 300.749C1702.77 299.163 1703.21 298.019 1704.08 296.982C1705.23 295.595 1707.79 295.453 1709.37 295.439C1711.27 295.421 1713.22 297.625 1713.22 297.625M1675.92 271.377C1676.96 268.36 1681.45 262.64 1688.67 259.204C1692.27 257.491 1693.17 257.391 1696.13 256.801C1701.06 255.822 1704.32 255.647 1708.89 256.801C1713.46 257.955 1714.18 257.642 1719.24 261.078C1722.24 263.119 1723.81 266.076 1724.05 270.449C1724.29 274.822 1721.64 278.571 1718.27 280.757C1716.58 281.855 1713.22 283.445 1713.22 283.445M1713.22 283.445C1710.78 282.944 1708.17 282.944 1708.17 282.944C1708.17 282.944 1706.14 282.675 1703.74 282.693M1703.36 282.698C1703.49 282.695 1703.62 282.694 1703.74 282.693M1703.36 282.698C1703.49 282.711 1703.62 282.71 1703.74 282.693M1703.36 282.698C1702 282.565 1700 280.95 1699.26 278.571C1698.78 277.009 1698.9 275.678 1699.98 273.885C1701.42 271.515 1703.66 270.443 1706 270.137C1707.31 269.966 1709.37 270.137 1709.37 270.137M1116.94 421.751C1113.81 428.623 1122.48 441.118 1126.08 442.679C1131.05 446.277 1138.01 451.522 1147.74 453.612C1160.02 457.361 1174.46 453.171 1188.9 445.178C1205.26 436.12 1219.46 429.248 1229.81 427.373C1241.36 426.436 1246.65 429.248 1257 429.248M1116.94 421.751C1118.87 419.564 1121.37 418.679 1120.07 413.317C1119.08 409.256 1114.37 408.944 1110.2 409.256M1116.94 421.751C1116.94 421.751 1112.47 423.506 1109.72 423.313C1106.39 423.079 1103.83 422.265 1101.3 420.501C1098.76 418.737 1097.2 417.602 1095.52 414.566C1094.32 412.392 1093.79 411.905 1094.08 409.256C1094.56 404.883 1097.46 402.294 1100.82 400.198C1107.31 396.137 1110.51 395.816 1116.94 396.137C1119.85 396.282 1121.97 396.65 1123.92 397.377M1257 429.248C1257 429.248 1248.46 428.444 1243.04 427.373C1237.83 426.343 1231.71 424.475 1229.81 424.25C1224.03 423.568 1215.61 424.875 1215.61 424.875C1215.61 424.875 1205.02 426.436 1197.08 429.56C1190.72 432.059 1181.68 437.682 1181.68 437.682C1181.68 437.682 1175.54 441.478 1171.33 442.68C1166.55 444.044 1162.66 444.241 1158.81 443.617C1154.72 442.953 1150.39 442.004 1146.3 439.868C1142.9 438.095 1140.16 436.432 1138.36 434.246C1135.98 431.356 1134.03 429.56 1134.03 425.187C1134.03 420.823 1136.03 416.441 1137.88 414.879L1139.56 413.005M1257 429.248C1248.82 427.998 1236.01 425.248 1229.57 422.063C1224.51 419.564 1217.77 418.402 1210.07 418.315C1204.22 418.249 1200.76 418.551 1195.15 420.189C1191.79 421.171 1188.65 422.063 1186.49 423.313C1184.32 424.562 1180.83 426.372 1177.1 428.311C1174.84 429.491 1173.68 430.575 1171.33 431.434C1168.95 432.304 1165.07 432.684 1165.07 432.684M1139.56 413.005L1136.67 407.694C1136.67 407.694 1133.97 403.671 1130.42 401.135C1127.92 399.355 1126.02 398.158 1123.92 397.377M1139.56 413.005C1140.76 411.547 1144.02 410.137 1147.02 409.256C1148.32 408.873 1149.89 408.728 1151.36 408.698M1165.07 432.684C1167.3 432.184 1168.92 431.747 1170.61 430.497C1173.45 428.389 1173.97 426.749 1174.22 422.688C1174.4 419.549 1172.05 416.128 1170.12 414.566L1170.02 414.479C1167.78 412.666 1166.28 411.443 1163.63 410.193C1162.93 409.865 1162.09 409.623 1161.22 409.445M1165.07 432.684C1162.01 433.369 1160.17 433.505 1157.13 432.684C1155.18 432.157 1154 431.964 1152.56 430.185C1151.28 428.608 1150.98 428.333 1150.87 426.749C1150.77 425.163 1151.21 424.019 1152.08 422.982C1153.23 421.595 1155.79 421.453 1157.37 421.439C1159.27 421.421 1161.22 423.625 1161.22 423.625M1123.92 397.377C1124.96 394.36 1129.45 388.64 1136.67 385.204C1140.27 383.491 1141.17 383.391 1144.13 382.801C1149.06 381.822 1152.32 381.647 1156.89 382.801C1161.46 383.955 1162.18 383.642 1167.24 387.078C1170.24 389.119 1171.81 392.076 1172.05 396.449C1172.29 400.822 1169.64 404.571 1166.27 406.757C1164.58 407.855 1161.22 409.445 1161.22 409.445M1161.22 409.445C1158.78 408.944 1156.17 408.944 1156.17 408.944C1156.17 408.944 1154.14 408.675 1151.74 408.693M1151.36 408.698C1151.49 408.695 1151.62 408.694 1151.74 408.693M1151.36 408.698C1151.49 408.711 1151.62 408.71 1151.74 408.693M1151.36 408.698C1150 408.565 1148 406.95 1147.26 404.571C1146.78 403.009 1146.9 401.678 1147.98 399.885C1149.42 397.515 1151.66 396.443 1154 396.137C1155.31 395.966 1157.37 396.137 1157.37 396.137M189.049 451.804C192.725 443.99 182.546 429.784 178.305 428.008C172.472 423.918 164.291 417.954 152.86 415.578C138.441 411.316 119.718 413.364 104.513 425.167C88.4999 437.597 49 455.71 49 455.71M189.049 451.804C186.787 454.29 183.841 455.297 185.374 461.393C186.534 466.01 192.065 466.365 196.965 466.01M189.049 451.804C189.049 451.804 194.303 449.809 197.531 450.028C201.438 450.293 204.448 451.219 207.426 453.224C210.405 455.23 212.243 456.521 214.212 459.972C215.622 462.445 216.251 462.999 215.908 466.01C215.343 470.982 211.934 473.926 207.992 476.31C200.358 480.927 196.601 481.291 189.049 480.927C185.631 480.762 183.143 480.343 180.85 479.517M162.473 461.748L165.865 467.786C165.865 467.786 169.043 472.361 173.216 475.244C176.146 477.268 178.385 478.628 180.85 479.517M162.473 461.748L164.452 459.617C166.619 457.841 168.975 452.859 168.975 447.897C168.975 442.925 166.681 440.883 163.886 437.597C161.771 435.111 158.546 433.22 154.556 431.205C149.75 428.776 144.661 427.697 139.854 426.943C135.331 426.232 130.769 426.457 125.152 428.008C120.205 429.375 112.995 433.691 112.995 433.691C112.995 433.691 103.944 439.046 97.9999 442.214C91.6518 445.598 83.7864 447.582 78 449.673C72.2136 451.763 52.7284 455.434 49 455.71M162.473 461.748C161.059 463.406 157.229 465.009 153.708 466.01C152.178 466.445 150.336 466.611 148.613 466.645M132.503 439.373C129.888 439.941 127.98 440.439 126.001 441.859C122.662 444.256 122.042 446.121 121.76 450.738C121.541 454.307 124.304 458.197 126.566 459.972L126.692 460.071C129.318 462.133 131.088 463.523 134.2 464.945C135.016 465.317 136.008 465.593 137.027 465.795M132.503 439.373C136.094 438.594 138.266 438.44 141.833 439.373C144.124 439.973 145.508 440.192 147.205 442.214C148.71 444.008 149.059 444.32 149.184 446.121C149.31 447.925 148.787 449.225 147.771 450.404C146.411 451.981 143.401 452.143 141.551 452.159C139.315 452.178 137.027 449.673 137.027 449.673M132.503 439.373C132.503 439.373 127.948 439.805 125.152 440.794C122.389 441.771 121.032 443.004 118.367 444.345C113.988 446.55 109.885 448.607 107.34 450.028C104.796 451.449 101.114 452.463 97.1621 453.579C90.5689 455.442 86.5102 455.785 79.6329 455.71C74.913 455.659 52.9871 456.471 49 455.71M180.85 479.517C179.625 482.946 174.347 489.45 165.865 493.357C161.636 495.305 160.587 495.419 157.101 496.089C151.316 497.202 147.488 497.401 142.116 496.089C136.744 494.778 135.896 495.133 129.959 491.226C126.432 488.906 124.587 485.544 124.304 480.571C124.021 475.599 127.131 471.337 131.09 468.851C133.076 467.604 137.027 465.795 137.027 465.795M137.027 465.795C139.889 466.365 142.964 466.365 142.964 466.365C142.964 466.365 145.347 466.671 148.159 466.651M148.613 466.645C148.461 466.648 148.309 466.65 148.159 466.651M148.613 466.645C148.453 466.63 148.301 466.631 148.159 466.651M148.613 466.645C150.211 466.796 152.564 468.632 153.425 471.337C153.991 473.113 153.85 474.626 152.577 476.665C150.894 479.36 148.264 480.579 145.509 480.927C143.967 481.121 141.551 480.927 141.551 480.927M160.027 172.265C165.069 182.338 151.106 200.652 145.288 202.941C137.285 208.214 126.061 215.903 110.379 218.966C90.5979 224.46 67.3258 218.32 44.0536 206.604C28.2555 198.651 13.7098 191.848 1 187.08V176.844M160.027 172.265C156.924 169.06 152.882 167.762 154.984 159.903C156.577 153.951 164.164 153.493 170.887 153.951M160.027 172.265C160.027 172.265 167.235 174.837 171.663 174.554C177.023 174.212 181.152 173.019 185.238 170.433C189.325 167.848 191.846 166.183 194.547 161.734C196.482 158.547 197.344 157.833 196.874 153.951C196.099 147.541 191.422 143.747 186.014 140.673C175.541 134.721 170.387 134.252 160.027 134.721C155.337 134.934 151.924 135.473 148.778 136.539M123.567 159.445L128.221 151.662C128.221 151.662 132.58 145.764 138.306 142.047C142.325 139.438 145.397 137.684 148.778 136.539M123.567 159.445L126.282 162.192C129.256 164.482 132.488 170.905 132.488 177.301C132.488 183.711 129.341 186.344 125.506 190.579C122.605 193.784 118.18 196.222 112.707 198.821C106.113 201.951 99.1311 203.342 92.5373 204.315C86.3314 205.231 80.0736 204.941 72.3681 202.941C65.5806 201.179 55.6897 195.616 55.6897 195.616C55.6897 195.616 41.1058 187.374 30.866 183.711C18.0663 179.133 1 176.844 1 176.844M123.567 159.445C121.628 157.309 116.373 155.242 111.543 153.951C109.443 153.39 106.917 153.177 104.554 153.133M1 176.844V167.62C3.86741 167.389 6.84712 167.26 9.92101 167.229C19.3558 167.132 24.9239 167.575 33.9689 169.976C39.3908 171.415 44.4414 172.723 47.9323 174.554C51.4231 176.386 57.0527 179.039 63.0592 181.88C66.7148 183.609 68.5771 185.199 72.3681 186.459C76.2036 187.733 82.4527 188.29 82.4527 188.29M82.4527 188.29C78.8642 187.558 76.2467 186.916 73.5317 185.085C68.9512 181.995 68.1015 179.591 67.7136 173.639C67.4138 169.038 71.2044 164.024 74.3074 161.734L74.4807 161.607C78.0827 158.949 80.5115 157.157 84.7799 155.325C85.9 154.844 87.2608 154.489 88.6586 154.228M82.4527 188.29C87.3783 189.295 90.3588 189.493 95.2524 188.29C98.3946 187.517 100.293 187.235 102.622 184.627C104.687 182.315 105.165 181.913 105.337 179.591C105.509 177.266 104.792 175.59 103.398 174.07C101.532 172.037 97.4036 171.828 94.8645 171.807C91.7975 171.782 88.6586 175.012 88.6586 175.012M148.778 136.539C147.098 132.117 139.857 123.733 128.221 118.696C122.42 116.185 120.98 116.038 116.197 115.174C108.262 113.74 103.01 113.483 95.6402 115.174C88.2707 116.865 87.1071 116.407 78.9619 121.443C74.1239 124.435 71.5923 128.769 71.2044 135.179C70.8166 141.589 75.0831 147.083 80.5133 150.288C83.2385 151.897 88.6586 154.228 88.6586 154.228M88.6586 154.228C92.585 153.493 96.8039 153.493 96.8039 153.493C96.8039 153.493 100.072 153.099 103.93 153.125M104.554 153.133C104.344 153.129 104.137 153.126 103.93 153.125M104.554 153.133C104.334 153.152 104.126 153.15 103.93 153.125M104.554 153.133C106.746 152.938 109.973 150.571 111.155 147.083C111.931 144.794 111.738 142.844 109.991 140.215C107.682 136.741 104.075 135.17 100.295 134.721C98.1793 134.47 94.8645 134.721 94.8645 134.721M93.0123 376.385C96.6928 369.017 86.5007 355.622 82.2539 353.948C76.4124 350.091 68.2201 344.468 56.7736 342.227C42.3348 338.209 19.2768 344.631 2.28988 353.2M93.0123 376.385C90.7474 378.729 87.7972 379.678 89.3318 385.426C90.4941 389.78 96.0322 390.115 100.94 389.78M93.0123 376.385C93.0123 376.385 98.2738 374.503 101.506 374.71C105.418 374.96 108.432 375.833 111.415 377.724C114.398 379.615 116.238 380.833 118.21 384.087C119.622 386.418 120.251 386.94 119.908 389.78C119.342 394.468 115.928 397.243 111.981 399.491C104.337 403.844 100.574 404.188 93.0123 403.844C89.5891 403.689 87.0981 403.294 84.802 402.515M66.3995 385.761L69.7969 391.454C69.7969 391.454 72.9787 395.768 77.1579 398.486C80.0912 400.395 82.334 401.677 84.802 402.515M66.3995 385.761L68.3813 383.752C70.5519 382.077 72.9111 377.38 72.9111 372.701C72.9111 368.013 70.614 366.087 67.8151 362.989C65.6972 360.645 62.4675 358.862 58.4723 356.962C53.6594 354.672 48.5633 353.655 43.7503 352.943C39.2205 352.273 34.6528 352.485 29.0284 353.948C24.0741 355.236 16.8544 359.306 16.8544 359.306C16.8544 359.306 9.7641 365.333 2.28988 368.013M66.3995 385.761C64.9839 387.324 61.1486 388.835 57.623 389.78C56.0905 390.19 54.2464 390.346 52.5213 390.378M36.3893 364.664C33.77 365.199 31.8595 365.668 29.8777 367.008C26.5343 369.268 25.9141 371.026 25.631 375.38C25.4121 378.745 28.179 382.412 30.4439 384.087L30.5704 384.18C33.1996 386.124 34.9724 387.435 38.088 388.775C38.9057 389.127 39.8989 389.386 40.9192 389.577M36.3893 364.664C39.9847 363.929 42.1602 363.784 45.7321 364.664C48.0257 365.229 49.4116 365.436 51.1113 367.343C52.6184 369.034 52.9677 369.328 53.0931 371.026C53.2187 372.727 52.6954 373.953 51.6775 375.064C50.3158 376.551 47.3024 376.704 45.449 376.719C43.2103 376.738 40.9192 374.375 40.9192 374.375M36.3893 364.664C36.3893 364.664 31.828 365.071 29.0284 366.003C26.2613 366.925 24.902 368.087 22.2336 369.352C17.8493 371.43 13.7402 373.371 11.1921 374.71C8.6441 376.05 4.95754 377.006 1 378.059M84.802 402.515C83.5751 405.749 78.2904 411.881 69.7969 415.565C65.5622 417.402 64.5111 417.509 61.0203 418.141C55.228 419.19 51.3944 419.378 46.0153 418.141C40.6361 416.905 39.7867 417.24 33.8413 413.556C30.31 411.368 28.4621 408.198 28.179 403.51C27.8959 398.821 31.0102 394.803 34.9738 392.459C36.963 391.282 40.9192 389.577 40.9192 389.577M40.9192 389.577C43.7852 390.114 46.8646 390.114 46.8646 390.114C46.8646 390.114 49.2503 390.403 52.0665 390.384M52.5213 390.378C52.3686 390.381 52.2169 390.383 52.0665 390.384M52.5213 390.378C52.3614 390.364 52.209 390.365 52.0665 390.384M52.5213 390.378C54.1213 390.52 56.4772 392.252 57.3398 394.803C57.9061 396.477 57.7653 397.904 56.4905 399.826C54.8051 402.367 52.1716 403.516 49.4126 403.844C47.8686 404.028 45.449 403.844 45.449 403.844M48.2642 471.262H1.00046V45.8504H53.624M48.2642 471.262H74.0887M48.2642 471.262V484.139M48.2642 471.262V456.164M74.0887 471.262H98.4515V484.139M74.0887 471.262V456.164H48.2642M74.0887 471.262V484.139M98.4515 484.139V497.461H123.789V484.139H98.4515ZM98.4515 484.139H74.0887M74.0887 484.139H48.2642M74.0887 484.139V517L1743.42 513.892V484.139M48.2642 484.139H1.00046V517H48.2642V484.139ZM48.2642 456.164V442.398H23.901V456.164H48.2642ZM1743.42 484.139V469.485M1743.42 484.139H1764.38M1743.42 484.139H1721.99M1743.42 469.485V456.095L1764.38 456.127M1743.42 469.485H1721.99V484.139M1743.42 469.485H1764.38M1764.38 456.127L1788.25 456.164V440.621H1764.38V456.127ZM1764.38 456.127V469.485M1764.38 469.485V484.139M1764.38 469.485H1812.13V46.2945H1770.22M1764.38 484.139V513.892H1812.13V484.139H1764.38ZM1721.99 484.139H1700.55V497.461H1721.99V484.139ZM1770.22 46.2945H1747.32M1770.22 46.2945V31.1964M1770.22 46.2945V60.9485M1747.32 46.2945H1724.42V31.1964M1747.32 46.2945V60.9485H1770.22M1747.32 46.2945V31.1964M1724.42 31.1964V15.2101H1700.55V31.1964H1724.42ZM1724.42 31.1964H1747.32M1747.32 31.1964H1770.22M1747.32 31.1964V1.00016H77.4995V30.3082M1770.22 31.1964H1817V1.00016H1770.22V31.1964ZM1770.22 60.9485V75.1585H1793.61V60.9485H1770.22ZM77.4995 30.3082V45.8504M77.4995 30.3082L53.624 30.3082M77.4995 30.3082L100.4 30.3082M77.4995 45.8504V59.1723H53.624M77.4995 45.8504H100.4V30.3082M77.4995 45.8504H53.624M53.624 59.1723H27.3118V73.8263H53.624V59.1723ZM53.624 59.1723V45.8504M53.624 45.8504V30.3082M53.624 30.3082V1.00016L1 1V30.3081L53.624 30.3082ZM100.4 30.3082L124.276 30.3083V16.9864H100.4V30.3082ZM686.3 240.04V182.864L732.823 135.281M686.3 240.04H710.402M686.3 240.04V279.278M877.436 56.7403H809.613L788.314 78.5253M877.436 56.7403V98.221M877.436 56.7403H925.64M710.402 240.04V220.981H732.823M710.402 240.04H732.823M877.436 220.981V240.04H732.823M877.436 220.981H856.136M877.436 220.981V98.221M732.823 240.04V220.981M732.823 135.281V220.981M732.823 135.281L753.001 114.643M732.823 220.981H753.001M753.001 220.981H856.136M753.001 220.981V198.559M753.001 114.643V198.559M753.001 114.643L770.657 96.5839M753.001 114.643H856.136M856.136 220.981V198.559M753.001 198.559H856.136M856.136 114.643V198.559M856.136 114.643V98.221M788.314 78.5253H856.136V96.5839M788.314 78.5253L770.657 96.5839M877.436 98.221H856.136M856.136 98.221V96.5839M686.3 279.278V339.257L732.823 387.564M686.3 279.278H710.402M856.136 460.896H803.448L767.014 423.066M856.136 460.896H877.436M856.136 460.896V440.717M877.436 460.896V440.717M877.436 460.896H925.64M856.136 279.278H877.436V297.777M856.136 279.278H753.001M856.136 279.278V297.777M710.402 279.278V297.777H732.823M710.402 279.278H732.823M877.436 297.777H856.136M877.436 297.777V408.516M732.823 297.777H753.001M732.823 297.777V279.278M732.823 297.777V387.564M753.001 297.777H856.136M753.001 297.777V279.278M753.001 297.777V318.517M856.136 297.777V318.517M732.823 279.278H753.001M732.823 387.564L753.001 408.516M753.001 408.516H856.136M753.001 408.516L767.014 423.066M753.001 408.516V318.517M877.436 408.516H856.136M877.436 408.516V423.066M856.136 408.516V423.066M856.136 408.516V318.517M767.014 423.066H856.136M877.436 423.066H856.136M877.436 423.066V440.717M856.136 423.066V440.717M856.136 440.717H877.436M753.001 318.517H856.136M925.64 460.896H950.303M925.64 460.896V441.981M950.303 460.896H994.584L1032.76 423.066M950.303 460.896V441.981M925.64 301.14V279.278H950.303M925.64 301.14V403.16M925.64 301.14H950.303M925.64 403.16H950.303M925.64 403.16V423.066M950.303 403.16H1052.85M950.303 403.16V423.066M950.303 403.16V318.517M1052.85 403.16L1072.5 383.692M1052.85 403.16V318.517M1052.85 403.16L1032.76 423.066M950.303 301.14H1052.85M950.303 301.14V318.517M950.303 301.14V279.278M1052.85 301.14H1072.5M1052.85 301.14V318.517M1052.85 301.14V279.278M1072.5 301.14V383.692M1072.5 301.14V279.278M1072.5 301.14H1094.92V279.278M1072.5 383.692L1117.34 339.257M1117.34 339.257V279.278M1117.34 339.257V342.06M950.303 318.517H1052.85M925.64 423.066H950.303M925.64 423.066V441.981M1032.76 423.066H950.303M950.303 423.066V441.981M925.64 441.981H950.303M1052.85 279.278H1072.5M1052.85 279.278H950.303M1072.5 279.278H1094.92M1094.92 279.278H1117.34M1117.34 279.278V240.04M1117.34 240.04V182.864L1072.5 136.791M1117.34 240.04H1094.92M925.64 56.7403V98.221M925.64 56.7403H994.584L1014.77 77.4807M1094.92 240.04V220.981H1072.5M1094.92 240.04H1072.5M925.64 220.981V240.04H1072.5M925.64 220.981H950.303M925.64 220.981V98.221M1072.5 240.04V220.981M1072.5 136.791V220.981M1072.5 136.791L1052.85 116.605M1072.5 220.981H1050.94M1050.94 220.981V198.559M1050.94 220.981H950.303M1050.94 114.643V116.605M1050.94 114.643L1034.96 98.221M1050.94 114.643L1052.85 116.605M1050.94 116.605V198.559M1050.94 116.605H1052.85M1050.94 116.605H950.303M1050.94 198.559H950.303M950.303 198.559V220.981M950.303 198.559V116.605M1034.96 98.221H950.303M1034.96 98.221L1014.77 77.4807M950.303 98.221V116.605M950.303 98.221V77.4807H1014.77M950.303 98.221H925.64M856.136 96.5839H770.657M1003.55 36L1142 173.335V355.513L1003.55 485H803.448L665 355.513V173.335L803.448 36H1003.55Z" stroke="#CECBBD" stroke-opacity="0.5" stroke-width="1"/>
</svg>
